<svg width="18" height="18" viewBox="0 0 18 18" fill="none" xmlns="http://www.w3.org/2000/svg">
<path d="M0.626438 0.626744C0.813938 0.439477 1.0681 0.334291 1.3331 0.334291C1.59811 0.334291 1.85227 0.439477 2.03977 0.626744L8.99977 7.58674L15.9598 0.626744C16.082 0.495111 16.2375 0.398883 16.4098 0.348197C16.5821 0.297512 16.7649 0.294246 16.939 0.338743C17.113 0.383241 17.2718 0.473855 17.3987 0.601038C17.5255 0.728221 17.6157 0.887264 17.6598 1.06141C17.7043 1.23525 17.7012 1.41787 17.6508 1.59009C17.6003 1.76231 17.5044 1.91776 17.3731 2.04008L10.4131 9.00008L17.3731 15.9601C17.5047 16.0823 17.601 16.2378 17.6517 16.4101C17.7023 16.5824 17.7056 16.7653 17.6611 16.9393C17.6166 17.1133 17.526 17.2721 17.3988 17.399C17.2716 17.5258 17.1126 17.616 16.9384 17.6601C16.7646 17.7046 16.582 17.7015 16.4098 17.6511C16.2375 17.6006 16.0821 17.5047 15.9598 17.3734L8.99977 10.4134L2.03977 17.3734C1.85009 17.55 1.59935 17.6461 1.34026 17.6416C1.08117 17.6371 0.833909 17.5324 0.650438 17.3494C0.467447 17.1659 0.362706 16.9187 0.358231 16.6596C0.353755 16.4005 0.449893 16.1498 0.626438 15.9601L7.58644 9.00008L0.626438 2.04008C0.43917 1.85258 0.333984 1.59841 0.333984 1.33341C0.333984 1.06841 0.43917 0.814244 0.626438 0.626744Z" fill="#1B1B1B"/>
</svg>
