<svg width="45" height="45" viewBox="0 0 45 45" fill="none" xmlns="http://www.w3.org/2000/svg">
<rect width="45" height="45" rx="6" fill="white"/>
<circle cx="23" cy="23" r="12.5" stroke="#434343" stroke-width="3"/>
<path d="M28 23C28 25.7614 25.7614 28 23 28C20.2386 28 18 25.7614 18 23C18 20.2386 20.2386 18 23 18C25.7614 18 28 20.2386 28 23Z" fill="#434343" stroke="#434343" stroke-width="3"/>
<rect x="35" y="22" width="7" height="4" rx="2" fill="#434343"/>
<path d="M4 24C4 22.8954 4.89543 22 6 22H9C10.1046 22 11 22.8954 11 24V24C11 25.1046 10.1046 26 9 26H6C4.89543 26 4 25.1046 4 24V24Z" fill="#434343"/>
<path d="M23 42C21.8954 42 21 41.1046 21 40V36C21 34.8954 21.8954 34 23 34V34C24.1046 34 25 34.8954 25 36V40C25 41.1046 24.1046 42 23 42V42Z" fill="#434343"/>
<rect x="21" y="12" width="8" height="4" rx="2" transform="rotate(-90 21 12)" fill="#434343"/>
</svg>
