<svg width="3359" height="607" viewBox="0 0 3359 607" fill="none" xmlns="http://www.w3.org/2000/svg">
<g filter="url(#filter0_d_200_774)">
<g clip-path="url(#clip0_200_774)">
<path fill-rule="evenodd" clip-rule="evenodd" d="M667.303 90.6103C666.075 89.9018 665.226 88.7703 664.753 87.2162C664.102 88.1597 663.252 88.7254 662.204 88.9132C661.758 86.4053 662.324 84.1425 663.903 82.125C666.368 84.4157 667.501 87.2442 667.303 90.6103Z" fill="#38558B"/>
<path fill-rule="evenodd" clip-rule="evenodd" d="M662.203 88.9131C659.803 96.6871 654.705 102.061 646.907 105.035C645.629 106.174 645.061 107.588 645.207 109.278C641.527 109.93 638.694 108.798 636.709 105.884C647.974 104.234 656.472 98.5768 662.203 88.9131Z" fill="#38558B"/>
<path fill-rule="evenodd" clip-rule="evenodd" d="M675.801 100.792C681.078 102.577 686.177 104.84 691.097 107.581C684.639 110.099 678.406 112.927 672.401 116.066C674.878 112.189 678.277 109.077 682.599 106.732C679.499 105.612 677.233 103.632 675.801 100.792Z" fill="#38558B"/>
<path fill-rule="evenodd" clip-rule="evenodd" d="M667.302 90.6104C670.084 93.9625 672.918 97.3566 675.8 100.793C677.233 103.632 679.499 105.612 682.599 106.732C678.277 109.078 674.877 112.189 672.401 116.066C671.835 117.763 670.701 118.895 669.002 119.46C667.333 120.548 665.633 121.679 663.903 122.855C660.913 118.161 656.946 114.767 652.006 112.672C649.196 112.401 646.93 111.27 645.207 109.278C645.061 107.588 645.629 106.174 646.907 105.035C654.704 102.061 659.803 96.6874 662.203 88.9134C663.252 88.7255 664.102 88.1599 664.753 87.2163C665.225 88.7705 666.075 89.9019 667.302 90.6104Z" fill="#38558B"/>
<path fill-rule="evenodd" clip-rule="evenodd" d="M652.006 112.672C656.947 114.766 660.914 118.16 663.903 122.854C665.633 121.679 667.333 120.548 669.002 119.46C667.783 123.595 666.084 127.555 663.903 131.34C661.197 124.223 657.232 118 652.006 112.672Z" fill="#38558B"/>
<path opacity="0.29" fill-rule="evenodd" clip-rule="evenodd" d="M590.819 127.945C587.831 125.161 585.282 121.767 583.171 117.763C578.047 129.383 569.832 137.868 558.526 143.219C571.053 135.219 578.983 123.905 582.321 109.278C586.109 114.931 588.943 121.154 590.819 127.945Z" fill="#2B4E89"/>
<path opacity="0.667" fill-rule="evenodd" clip-rule="evenodd" d="M590.819 127.946C596.017 134.776 602.249 140.433 609.515 144.916C599.79 142.54 593.557 136.883 590.819 127.946Z" fill="#315087"/>
<path opacity="0.459" fill-rule="evenodd" clip-rule="evenodd" d="M456.549 144.916C436.983 144.359 417.72 144.925 398.762 146.613C396.497 146.613 394.229 146.613 391.964 146.613C392.674 145.389 393.806 144.54 395.363 144.068C416.054 142.665 436.45 142.948 456.549 144.916Z" fill="#2B4E89"/>
<path opacity="0.972" fill-rule="evenodd" clip-rule="evenodd" d="M398.763 146.613C417.72 144.925 436.984 144.359 456.55 144.916C464.592 145.131 471.391 147.96 476.945 153.401C469.948 150.226 462.582 148.246 454.85 147.462C436.163 146.614 417.467 146.331 398.763 146.613Z" fill="#2B4E89"/>
<path fill-rule="evenodd" clip-rule="evenodd" d="M344.374 165.281C347.065 172.918 350.748 180.273 355.422 187.343C357.313 188.709 359.295 189.841 361.37 190.737C361.37 191.302 361.37 191.869 361.37 192.434C407.908 262.127 454.079 332.271 499.889 402.869C507.473 412.456 517.389 417.829 529.633 418.991C554.916 414.821 576.161 421.893 593.368 440.204C596.018 443.118 597.434 446.512 597.617 450.387C616.322 450.67 635.018 450.387 653.705 449.538C645.827 445.036 637.897 440.512 629.91 435.962C623.431 430.053 617.483 423.548 612.064 416.446C569.876 349.41 526.254 283.225 481.193 217.89C452.976 193.942 420.401 185.457 383.465 192.434C383.465 182.251 383.465 172.069 383.465 161.887C383.465 159.624 383.465 157.361 383.465 155.098C386.865 152.836 389.698 150.007 391.963 146.613C394.229 146.613 396.496 146.613 398.762 146.613C417.466 146.331 436.162 146.614 454.849 147.462C462.581 148.246 469.947 150.226 476.944 153.401C480.344 157.927 484.309 161.887 488.842 165.281C491.762 175.558 497.427 184.044 505.838 190.737C507.546 196.203 508.964 201.859 510.087 207.707C513.172 208.97 516.287 210.102 519.435 211.101C518.351 216.797 520.618 220.191 526.233 221.284C526.233 222.416 526.233 223.546 526.233 224.678C525.967 227.008 526.25 229.272 527.083 231.466C532.989 237.582 538.088 244.371 542.38 251.831C544.271 253.197 546.253 254.329 548.328 255.225C548.062 257.555 548.345 259.819 549.178 262.013C551.587 262.994 553.002 264.691 553.427 267.104C553.155 269.988 553.437 272.817 554.277 275.59C559.298 280.496 564.679 285.02 570.423 289.166C570.299 291.758 571.433 293.455 573.823 294.257C573.556 296.587 573.84 298.851 574.673 301.046C576.161 304.669 578.711 306.933 582.321 307.834C584.199 311.589 584.199 315.267 582.321 318.865C585.96 319.837 589.359 321.251 592.519 323.107C592.394 325.699 593.528 327.396 595.918 328.199C613.089 356.509 631.785 383.943 652.005 410.506C658.414 414.272 665.213 417.099 672.401 418.991C695.689 415.555 716.366 420.929 734.437 435.113C741.188 446.007 744.303 457.886 743.785 470.751C741.181 474.181 737.782 476.727 733.587 478.388C709.226 479.52 684.864 479.52 660.503 478.388C646.099 472.968 631.37 469.857 616.313 469.054C606.117 467.853 597.619 470.682 590.819 477.54C558.844 480.759 527.117 479.344 495.64 473.297C480.451 466.069 467.138 456.17 455.699 443.599C435.545 412.373 415.433 381.26 395.363 350.26C385.085 339.404 376.871 326.96 370.718 312.925C367.885 308.399 365.053 308.399 362.22 312.925C353.377 343.939 343.179 374.486 331.627 404.566C324.213 429.452 317.131 454.341 310.382 479.237C299.618 479.237 288.853 479.237 278.089 479.237C282.297 469.458 285.129 459.276 286.587 448.69C256.555 448.406 226.529 448.69 196.507 449.538C192.127 458.982 189.294 468.883 188.009 479.237C177.245 479.237 166.48 479.237 155.716 479.237C155.444 476.353 155.727 473.524 156.566 470.751C169.752 432.096 183.067 393.629 196.507 355.351C197.054 351.581 195.921 348.468 193.108 346.018C195.829 345.554 198.378 344.706 200.756 343.472C212.676 309.185 223.723 274.678 233.899 239.951C239.448 229.672 243.413 218.641 245.796 206.859C245.483 204.524 244.35 203.11 242.397 202.616C238.998 202.616 237.298 200.919 237.298 197.525C237.016 185.632 237.298 173.753 238.148 161.887C239.57 155.68 242.686 150.589 247.496 146.613C267.279 144.781 287.109 144.498 306.982 145.765C322.112 147.377 334.577 153.882 344.374 165.281ZM295.085 206.01C296.997 208.775 299.264 211.32 301.884 213.647C293.329 215.054 284.831 214.77 276.389 212.799C277.365 210.153 278.497 207.607 279.789 205.162C284.899 204.651 289.998 204.933 295.085 206.01ZM310.382 224.678C312.522 230.66 315.921 235.751 320.579 239.951C322.169 243.958 324.434 247.636 327.378 250.982C306.423 251.831 285.462 252.114 264.492 251.831C264.492 250.134 264.492 248.437 264.492 246.74C267.453 239.877 270.286 232.805 272.99 225.526C285.441 224.678 297.905 224.396 310.382 224.678ZM342.674 280.681C341.447 281.39 340.598 282.52 340.125 284.075C337.482 280.655 334.365 280.09 330.777 282.378C332.152 285.044 332.72 287.873 332.477 290.863C305.283 290.863 278.089 290.863 250.895 290.863C252.94 284.737 254.639 278.514 255.994 272.196C257.508 269.156 259.208 266.045 261.093 262.862C284.887 261.73 308.682 261.73 332.477 262.862C338.323 267.473 341.723 273.412 342.674 280.681ZM255.994 302.743C253.801 303.69 252.386 305.387 251.745 307.834C249.749 314.681 247.766 321.47 245.796 328.199C245.23 328.199 244.662 328.199 244.097 328.199C242.258 326.342 241.126 324.08 240.697 321.41C242.754 315.253 244.453 309.032 245.796 302.743C249.384 300.635 252.783 300.635 255.994 302.743ZM332.477 311.228C327.997 316.843 323.464 322.5 318.88 328.199C316.047 328.199 313.215 328.199 310.382 328.199C308.927 321.291 306.943 314.503 304.433 307.834C302.715 306.413 300.731 305.848 298.484 306.137C298.262 313.692 297.128 321.047 295.085 328.199C294.519 328.199 293.951 328.199 293.385 328.199C291.509 324.993 289.244 322.165 286.587 319.713C283.917 314.208 279.95 309.682 274.69 306.137C272.616 306.793 271.482 308.207 271.29 310.379C273.454 314.14 273.454 317.818 271.29 321.41C268.022 315.421 266.89 308.633 267.891 301.046C289.986 301.046 312.081 301.046 334.176 301.046C333.61 304.44 333.043 307.834 332.477 311.228Z" fill="#2B4E89"/>
<path opacity="0.38" fill-rule="evenodd" clip-rule="evenodd" d="M344.374 165.281C334.578 153.883 322.113 147.377 306.983 145.765C287.109 144.499 267.28 144.781 247.496 146.613C248.207 145.389 249.338 144.54 250.895 144.068C271.291 142.936 291.686 142.936 312.082 144.068C326.367 146.229 337.131 153.3 344.374 165.281Z" fill="#2B4E89"/>
<path opacity="0.486" fill-rule="evenodd" clip-rule="evenodd" d="M391.964 146.613C389.698 150.007 386.865 152.836 383.466 155.099C384.599 150.573 387.431 147.745 391.964 146.613Z" fill="#2B4E89"/>
<path opacity="0.537" fill-rule="evenodd" clip-rule="evenodd" d="M556.827 143.219C554.443 145.648 551.611 147.628 548.329 149.159C552.592 151.62 557.125 153.6 561.926 155.099C563.282 155.874 563.848 157.005 563.626 158.493C554.786 154.514 545.72 151.403 536.432 149.159C543.096 147.003 549.894 145.023 556.827 143.219Z" fill="#2B4E89"/>
<path opacity="0.69" fill-rule="evenodd" clip-rule="evenodd" d="M609.516 144.916C614.14 145.701 618.673 146.833 623.113 148.31C621.952 151.155 619.684 152.287 616.314 151.704C614.835 148.694 612.57 146.431 609.516 144.916Z" fill="#315087"/>
<path fill-rule="evenodd" clip-rule="evenodd" d="M623.112 148.31C625.109 147.939 626.809 148.504 628.211 150.007C623.002 152.977 617.337 154.675 611.215 155.098C612.558 153.569 614.257 152.438 616.314 151.704C619.684 152.287 621.951 151.155 623.112 148.31Z" fill="#2F4F88"/>
<path fill-rule="evenodd" clip-rule="evenodd" d="M590.82 127.946C593.558 136.883 599.79 142.54 609.515 144.916C612.57 146.432 614.835 148.694 616.314 151.704C614.257 152.438 612.558 153.569 611.215 155.098C601.655 156.954 594.006 162.045 588.27 170.372C586.555 172.96 585.705 175.788 585.721 178.857C584.614 179.86 583.481 180.991 582.321 182.251C579.3 171.632 573.067 163.712 563.626 158.493C563.848 157.005 563.282 155.874 561.926 155.098C557.125 153.6 552.592 151.62 548.329 149.159C551.611 147.628 554.443 145.648 556.827 143.219C557.393 143.219 557.961 143.219 558.527 143.219C569.833 137.868 578.047 129.383 583.171 117.763C585.282 121.767 587.832 125.161 590.82 127.946Z" fill="#2F4F88"/>
<path opacity="0.031" fill-rule="evenodd" clip-rule="evenodd" d="M476.945 153.401C482.61 155.664 486.577 159.624 488.843 165.281C484.31 161.887 480.345 157.927 476.945 153.401Z" fill="#C9D4E6"/>
<path opacity="0.592" fill-rule="evenodd" clip-rule="evenodd" d="M563.625 158.493C573.066 163.712 579.299 171.632 582.321 182.252C583.48 180.991 584.614 179.86 585.72 178.857C585.61 182.584 584.476 185.978 582.321 189.04C578.682 177.24 572.449 167.058 563.625 158.493Z" fill="#2F4F88"/>
<path opacity="0.012" fill-rule="evenodd" clip-rule="evenodd" d="M380.067 165.281C380.067 174.332 380.067 183.383 380.067 192.434C373.834 192.434 367.604 192.434 361.371 192.434C361.371 191.869 361.371 191.302 361.371 190.737C367.036 190.737 372.702 190.737 378.367 190.737C377.822 181.92 378.389 173.436 380.067 165.281Z" fill="#F5F9FE"/>
<path fill-rule="evenodd" clip-rule="evenodd" d="M611.215 155.099C600.536 160.67 592.038 168.59 585.721 178.857C585.706 175.788 586.555 172.96 588.27 170.372C594.007 162.045 601.655 156.954 611.215 155.099Z" fill="#2F4F88"/>
<path opacity="0.473" fill-rule="evenodd" clip-rule="evenodd" d="M383.466 155.099C383.466 157.361 383.466 190.171 383.466 192.434C382.332 202.616 383.466 192.434 380.067 192.434C380.067 183.384 380.067 174.332 380.067 165.281C379.657 161.211 380.791 157.817 383.466 155.099Z" fill="#2B4E89"/>
<path opacity="0.941" fill-rule="evenodd" clip-rule="evenodd" d="M344.375 165.281C351.301 172.876 356.966 181.362 361.371 190.737C359.296 189.841 357.314 188.709 355.423 187.343C350.749 180.273 347.065 172.918 344.375 165.281Z" fill="#2B4E89"/>
<path opacity="0.965" fill-rule="evenodd" clip-rule="evenodd" d="M488.842 165.281C495.827 172.834 501.494 181.32 505.838 190.737C497.427 184.043 491.762 175.558 488.842 165.281Z" fill="#2B4E89"/>
<path opacity="0.497" fill-rule="evenodd" clip-rule="evenodd" d="M247.496 146.613C242.686 150.589 239.571 155.68 238.148 161.887C237.299 173.753 237.017 185.632 237.299 197.525C232.021 182.077 232.871 166.803 239.848 151.704C241.767 148.919 244.316 147.222 247.496 146.613Z" fill="#2B4E89"/>
<path fill-rule="evenodd" clip-rule="evenodd" d="M674.101 199.222C669.857 195.198 664.758 193.501 658.805 194.131C660.487 189.632 662.187 185.107 663.904 180.554C666.829 186.956 670.228 193.179 674.101 199.222Z" fill="#315087"/>
<path fill-rule="evenodd" clip-rule="evenodd" d="M383.466 192.434C380.067 192.434 380.067 192.434 383.466 192.434C420.402 185.457 452.977 193.943 481.194 217.89C526.255 283.225 569.877 349.41 612.065 416.446C617.483 423.548 623.432 430.053 629.911 435.962C637.898 440.512 645.828 445.036 653.706 449.538C635.018 450.387 616.323 450.67 597.618 450.387C597.435 446.512 596.019 443.118 593.369 440.204C576.162 421.893 554.917 414.822 529.633 418.991C517.389 417.829 507.474 412.456 499.89 402.869C454.08 332.272 407.908 262.127 361.371 192.434C367.604 192.434 373.834 192.434 380.067 192.434C383.466 192.434 380.067 192.434 383.466 192.434Z" fill="white"/>
<path opacity="0.655" fill-rule="evenodd" clip-rule="evenodd" d="M658.805 194.131C656.972 199.914 653.007 203.309 646.907 204.313C650.83 200.968 654.797 197.574 658.805 194.131Z" fill="#315087"/>
<path fill-rule="evenodd" clip-rule="evenodd" d="M658.804 194.131C664.758 193.501 669.856 195.198 674.1 199.222C675.396 202.212 677.663 203.909 680.899 204.313C682.724 206.663 684.99 208.642 687.697 210.253C686.752 210.903 686.186 211.751 685.998 212.798C680.705 212.892 676.738 215.154 674.1 219.587C673.534 221.284 672.401 222.416 670.701 222.981C667.905 224.642 665.638 226.904 663.903 229.769C660.43 222.908 655.331 217.817 648.606 214.495C646.92 214.787 645.788 214.22 645.207 212.798C644.202 211.694 643.07 210.562 641.808 209.404C643.966 208.067 645.666 206.37 646.906 204.313C653.006 203.308 656.972 199.914 658.804 194.131Z" fill="#315087"/>
<path opacity="0.055" fill-rule="evenodd" clip-rule="evenodd" d="M674.101 199.222C677.337 199.626 679.604 201.323 680.899 204.313C677.663 203.909 675.396 202.212 674.101 199.222Z" fill="#315087"/>
<path fill-rule="evenodd" clip-rule="evenodd" d="M505.838 190.737C511.209 196.928 515.742 203.716 519.435 211.102C516.287 210.102 513.172 208.97 510.087 207.707C508.963 201.859 507.546 196.203 505.838 190.737Z" fill="#2B4E89"/>
<path opacity="0.89" fill-rule="evenodd" clip-rule="evenodd" d="M646.907 204.313C645.666 206.37 643.967 208.067 641.808 209.404C643.071 210.562 644.203 211.693 645.207 212.798C640.292 212.423 635.759 211.01 631.61 208.556C636.787 207.302 641.886 205.888 646.907 204.313Z" fill="#315087"/>
<path opacity="0.901" fill-rule="evenodd" clip-rule="evenodd" d="M680.899 204.313C685.24 206.19 689.773 207.604 694.496 208.556C692.537 211.751 689.705 213.165 685.998 212.798C686.187 211.751 686.753 210.903 687.698 210.253C684.99 208.642 682.725 206.663 680.899 204.313Z" fill="#315087"/>
<path opacity="0.337" fill-rule="evenodd" clip-rule="evenodd" d="M295.086 206.01C299.452 207.531 302.851 210.358 305.284 214.496C295.149 216.186 284.951 216.751 274.69 216.193C275.256 211.667 275.824 207.142 276.39 202.616C281.52 202.336 286.618 202.62 291.687 203.465C293.243 203.936 294.375 204.785 295.086 206.01ZM295.086 206.01C289.999 204.933 284.9 204.651 279.789 205.162C278.498 207.607 277.366 210.153 276.39 212.798C284.832 214.77 293.33 215.054 301.884 213.647C299.265 211.32 296.998 208.775 295.086 206.01Z" fill="#B4C0DA"/>
<path opacity="0.906" fill-rule="evenodd" clip-rule="evenodd" d="M519.435 211.102C522.539 213.897 524.806 217.291 526.233 221.284C520.618 220.191 518.351 216.797 519.435 211.102Z" fill="#2B4E89"/>
<path opacity="0.035" fill-rule="evenodd" clip-rule="evenodd" d="M685.998 212.798C682.322 215.485 678.356 217.747 674.101 219.587C676.738 215.154 680.705 212.892 685.998 212.798Z" fill="#315087"/>
<path opacity="0.333" fill-rule="evenodd" clip-rule="evenodd" d="M310.382 224.678C297.905 224.396 285.442 224.678 272.99 225.526C270.286 232.805 267.453 239.877 264.492 246.739C264.492 245.608 264.492 244.477 264.492 243.345C266.251 236.661 268.519 230.156 271.291 223.829C284.624 222.434 297.653 222.716 310.382 224.678Z" fill="#B6C3D9"/>
<path opacity="0.682" fill-rule="evenodd" clip-rule="evenodd" d="M242.398 202.616C244.35 203.11 245.484 204.524 245.797 206.859C243.414 218.642 239.449 229.672 233.899 239.952C236.947 228.559 240.346 217.245 244.097 206.01C243.48 204.851 242.914 203.719 242.398 202.616Z" fill="#2B4E89"/>
<path opacity="0.224" fill-rule="evenodd" clip-rule="evenodd" d="M526.233 221.284C528.623 222.086 529.757 223.783 529.633 226.375C528.499 225.81 527.367 225.243 526.233 224.678C526.233 223.546 526.233 222.416 526.233 221.284Z" fill="#2B4E89"/>
<path fill-rule="evenodd" clip-rule="evenodd" d="M648.606 214.496C655.332 217.817 660.431 222.908 663.903 229.769C665.638 226.905 667.906 224.642 670.702 222.981C668.769 227.612 666.503 232.138 663.903 236.557C661.442 232.88 659.459 228.921 657.954 224.678C654.487 221.504 651.372 218.11 648.606 214.496Z" fill="#315087"/>
<path fill-rule="evenodd" clip-rule="evenodd" d="M526.234 224.678C527.367 225.243 528.499 225.81 529.633 226.375C536.522 235.525 542.754 245.143 548.329 255.225C546.254 254.329 544.272 253.197 542.38 251.831C538.089 244.37 532.99 237.582 527.084 231.466C526.251 229.272 525.967 227.008 526.234 224.678Z" fill="#2B4E89"/>
<path opacity="0.349" fill-rule="evenodd" clip-rule="evenodd" d="M310.382 224.678C315.102 228.837 318.501 233.928 320.58 239.951C315.921 235.751 312.522 230.66 310.382 224.678Z" fill="#B6BFD6"/>
<path opacity="0.137" fill-rule="evenodd" clip-rule="evenodd" d="M320.58 239.951C322.069 239.729 323.202 240.294 323.979 241.648C326.562 245.317 328.262 249.277 329.078 253.528C306.983 253.528 284.888 253.528 262.793 253.528C262.337 250.814 262.905 248.552 264.492 246.74C264.492 248.437 264.492 250.134 264.492 251.831C285.462 252.114 306.424 251.831 327.378 250.982C324.435 247.636 322.169 243.958 320.58 239.951Z" fill="#CFD7E7"/>
<path opacity="0.827" fill-rule="evenodd" clip-rule="evenodd" d="M264.492 243.346C264.492 244.478 264.492 245.608 264.492 246.74C262.905 248.552 262.337 250.814 262.793 253.528C284.888 253.528 306.983 253.528 329.078 253.528C306.718 255.218 284.055 255.783 261.093 255.225C260.818 251.785 261.101 248.391 261.943 245.043C262.594 244.099 263.443 243.534 264.492 243.346Z" fill="#5F779D"/>
<path opacity="0.486" fill-rule="evenodd" clip-rule="evenodd" d="M342.675 280.681C341.723 273.412 338.324 267.473 332.477 262.862C308.682 261.73 284.888 261.73 261.093 262.862C259.208 266.046 257.509 269.156 255.994 272.196C256.29 268.189 256.856 264.23 257.694 260.316C283.761 260.033 309.821 260.316 335.876 261.165C338.426 264.842 340.975 268.518 343.525 272.196C344.85 275.398 344.566 278.227 342.675 280.681Z" fill="#A2AFCA"/>
<path opacity="0.271" fill-rule="evenodd" clip-rule="evenodd" d="M548.328 255.225C552.987 259.425 556.386 264.516 558.526 270.499C556.827 269.367 555.127 268.236 553.427 267.105C553.002 264.691 551.587 262.994 549.178 262.013C548.345 259.819 548.062 257.555 548.328 255.225Z" fill="#2B4E89"/>
<path opacity="0.396" fill-rule="evenodd" clip-rule="evenodd" d="M255.995 272.196C254.64 278.514 252.941 284.737 250.896 290.863C249.881 290.465 249.315 289.616 249.196 288.318C250.59 282.312 252.857 276.937 255.995 272.196Z" fill="#AEB8D1"/>
<path fill-rule="evenodd" clip-rule="evenodd" d="M553.428 267.104C555.128 268.236 556.827 269.367 558.527 270.499C563.152 276.258 567.117 282.482 570.424 289.166C564.68 285.02 559.299 280.496 554.278 275.59C553.438 272.817 553.156 269.988 553.428 267.104Z" fill="#2B4E89"/>
<path opacity="0.616" fill-rule="evenodd" clip-rule="evenodd" d="M233.899 239.952C223.724 274.679 212.676 309.185 200.757 343.472C198.379 344.706 195.83 345.555 193.109 346.018C195.921 348.468 197.055 351.581 196.508 355.352C191.635 355.574 188.803 353.31 188.01 348.563C190.209 349.904 192.193 351.601 193.958 353.655C193.913 350.401 192.495 347.572 189.709 345.169C193.341 344.185 196.457 342.488 199.057 340.078C210.557 306.473 222.17 273.097 233.899 239.952Z" fill="#2B4E89"/>
<path opacity="0.616" fill-rule="evenodd" clip-rule="evenodd" d="M342.675 280.681C342.675 282.378 342.675 284.075 342.675 285.772C340.428 286.06 338.444 285.495 336.726 284.075C336.519 287.362 335.103 289.624 332.477 290.863C332.72 287.873 332.152 285.044 330.777 282.378C334.365 280.09 337.482 280.655 340.125 284.075C340.598 282.52 341.448 281.39 342.675 280.681Z" fill="#A6BCDB"/>
<path opacity="0.349" fill-rule="evenodd" clip-rule="evenodd" d="M570.424 289.166C572.814 289.969 573.948 291.666 573.823 294.257C571.434 293.454 570.3 291.757 570.424 289.166Z" fill="#2B4E89"/>
<path opacity="0.059" fill-rule="evenodd" clip-rule="evenodd" d="M245.797 299.348C249.917 298.826 253.882 299.392 257.694 301.045C257.483 302.075 256.917 302.641 255.995 302.742C252.784 300.635 249.385 300.635 245.797 302.742C245.797 301.61 245.797 300.48 245.797 299.348Z" fill="#D2E3F7"/>
<path fill-rule="evenodd" clip-rule="evenodd" d="M573.824 294.257C577.988 297.87 580.821 302.396 582.322 307.834C578.712 306.933 576.162 304.669 574.673 301.046C573.841 298.851 573.557 296.587 573.824 294.257Z" fill="#2B4E89"/>
<path opacity="0.039" fill-rule="evenodd" clip-rule="evenodd" d="M335.877 304.44C335.605 307.245 334.473 309.507 332.477 311.228C333.043 307.834 333.611 304.44 334.177 301.046C312.082 301.046 289.987 301.046 267.892 301.046C266.891 308.633 268.023 315.421 271.291 321.41C271.291 322.542 271.291 323.673 271.291 324.805C269.592 324.805 267.892 324.805 266.192 324.805C264.911 316.382 264.345 307.897 264.493 299.349C288.287 299.349 312.082 299.349 335.877 299.349C335.877 301.046 335.877 302.743 335.877 304.44Z" fill="#CFDCF2"/>
<path opacity="0.596" fill-rule="evenodd" clip-rule="evenodd" d="M245.796 302.743C244.454 309.032 242.754 315.253 240.698 321.41C241.126 324.08 242.258 326.342 244.097 328.199C240.035 327.885 238.335 325.622 238.998 321.41C239.882 315.62 241.297 309.964 243.247 304.44C243.898 303.496 244.748 302.931 245.796 302.743Z" fill="#ACB8D2"/>
<path fill-rule="evenodd" clip-rule="evenodd" d="M645.207 295.955C652.33 302.831 656.296 311.316 657.105 321.41C654.346 314.792 650.665 308.569 646.057 302.743C645.224 300.549 644.941 298.285 645.207 295.955Z" fill="#91A9D1"/>
<path opacity="0.655" fill-rule="evenodd" clip-rule="evenodd" d="M286.588 319.713C282.684 316.669 279.002 313.275 275.54 309.531C275.591 314.386 274.175 318.347 271.291 321.41C273.455 317.818 273.455 314.14 271.291 310.379C271.483 308.207 272.617 306.793 274.69 306.137C279.951 309.682 283.917 314.208 286.588 319.713Z" fill="#C4D2EA"/>
<path opacity="0.102" fill-rule="evenodd" clip-rule="evenodd" d="M645.207 295.954C644.103 295.439 642.969 294.873 641.808 294.257C640.117 303.238 639.551 312.289 640.109 321.41C638.151 323.32 636.451 323.32 635.01 321.41C636.058 321.222 636.908 320.657 637.559 319.713C638.407 310.68 638.691 301.629 638.409 292.56C641.779 291.978 644.047 293.11 645.207 295.954Z" fill="#D9E2F7"/>
<path opacity="0.537" fill-rule="evenodd" clip-rule="evenodd" d="M601.017 309.531C600.293 316.195 598.593 322.417 595.918 328.198C593.529 327.396 592.395 325.699 592.519 323.107C593.568 323.296 594.417 323.861 595.068 324.804C596.598 319.343 598.581 314.252 601.017 309.531Z" fill="#C2D2EA"/>
<path fill-rule="evenodd" clip-rule="evenodd" d="M245.797 299.348C276.094 297.657 306.687 297.091 337.576 297.651C338.032 300.365 337.464 302.627 335.877 304.44C335.877 302.743 335.877 301.046 335.877 299.348C312.082 299.348 288.287 299.348 264.493 299.348C264.345 307.897 264.911 316.382 266.192 324.804C267.892 324.804 269.592 324.804 271.291 324.804C272.715 325.385 273.283 326.515 272.991 328.198C265.626 328.198 258.26 328.198 250.896 328.198C251.684 319.508 253.384 311.023 255.995 302.743C256.917 302.641 257.483 302.076 257.694 301.046C253.882 299.393 249.917 298.826 245.797 299.348Z" fill="#6185BD"/>
<path fill-rule="evenodd" clip-rule="evenodd" d="M582.321 307.834C586.98 312.034 590.379 317.125 592.519 323.108C589.359 321.251 585.96 319.837 582.321 318.865C584.199 315.267 584.199 311.59 582.321 307.834Z" fill="#2B4E89"/>
<path opacity="0.82" fill-rule="evenodd" clip-rule="evenodd" d="M635.01 321.41C633.883 324.027 632.749 326.856 631.611 329.896C629.452 323.08 629.452 316.292 631.611 309.531C631.327 308.966 631.045 308.399 630.761 307.834C629.557 309.329 628.14 310.459 626.512 311.228C626.841 307.135 629.107 305.438 633.31 306.137C633.62 309.685 633.052 313.08 631.611 316.319C632.788 318.047 633.92 319.744 635.01 321.41Z" fill="#ADC5E4"/>
<path fill-rule="evenodd" clip-rule="evenodd" d="M310.383 328.198C305.675 325.032 303.125 320.507 302.734 314.622C300.984 318.165 299.568 321.843 298.485 325.653C297.914 327.401 296.78 328.249 295.086 328.198C297.129 321.047 298.263 313.692 298.485 306.137C300.732 305.848 302.716 306.413 304.434 307.834C306.944 314.503 308.928 321.291 310.383 328.198Z" fill="#A2B6D9"/>
<path fill-rule="evenodd" clip-rule="evenodd" d="M286.588 319.713C289.244 322.165 291.51 324.993 293.386 328.198C290.553 328.198 287.721 328.198 284.888 328.198C285.581 322.939 283.598 318.978 278.939 316.319C278.095 320.239 277.812 324.198 278.089 328.198C276.39 328.198 274.69 328.198 272.991 328.198C273.283 326.515 272.715 325.385 271.291 324.804C271.291 323.672 271.291 322.542 271.291 321.41C274.175 318.347 275.591 314.386 275.54 309.531C279.002 313.274 282.684 316.669 286.588 319.713Z" fill="#87A1D0"/>
<path opacity="0.902" fill-rule="evenodd" clip-rule="evenodd" d="M255.995 302.743C253.384 311.023 251.684 319.508 250.896 328.199C249.196 328.199 247.496 328.199 245.797 328.199C247.767 321.47 249.75 314.681 251.746 307.834C252.386 305.387 253.802 303.69 255.995 302.743Z" fill="#A7BBE0"/>
<path opacity="0.325" fill-rule="evenodd" clip-rule="evenodd" d="M332.477 311.228C333.483 316.542 331.783 320.501 327.378 323.107C324.961 325.526 322.128 327.223 318.88 328.199C323.464 322.5 327.997 316.844 332.477 311.228Z" fill="#B1C3DD"/>
<path fill-rule="evenodd" clip-rule="evenodd" d="M245.796 299.349C245.796 300.481 245.796 301.611 245.796 302.743C244.748 302.931 243.898 303.496 243.247 304.44C241.297 309.964 239.882 315.62 238.998 321.41C238.335 325.622 240.035 327.885 244.097 328.199C244.663 328.199 245.23 328.199 245.796 328.199C247.496 328.199 249.196 328.199 250.895 328.199C258.26 328.199 265.626 328.199 272.99 328.199C274.69 328.199 276.39 328.199 278.089 328.199C277.812 324.199 278.094 320.239 278.939 316.319C283.598 318.979 285.581 322.939 284.888 328.199C287.721 328.199 290.552 328.199 293.386 328.199C293.952 328.199 294.519 328.199 295.085 328.199C296.78 328.25 297.913 327.401 298.485 325.653C299.567 321.843 300.983 318.166 302.734 314.622C303.125 320.508 305.674 325.032 310.382 328.199C313.215 328.199 316.047 328.199 318.88 328.199C322.128 327.223 324.961 325.526 327.378 323.107C327.06 326.61 326.21 330.004 324.829 333.29C323.979 332.441 323.129 331.593 322.279 330.744C293.391 329.896 264.497 329.612 235.599 329.896C237.008 320.866 238.423 311.815 239.848 302.743C241.739 301.377 243.721 300.245 245.796 299.349Z" fill="#4B6CA3"/>
<path fill-rule="evenodd" clip-rule="evenodd" d="M645.207 295.954C644.94 298.284 645.224 300.548 646.057 302.743C650.664 308.569 654.346 314.792 657.104 321.41C657.991 324.328 659.691 326.59 662.203 328.199C666.168 325.37 669.568 321.975 672.401 318.016C673.205 315.63 674.904 314.498 677.5 314.622C679.497 314.25 681.196 314.815 682.599 316.319C678.159 324.796 675.894 333.846 675.8 343.472C675.508 345.156 676.075 346.286 677.5 346.866C678.183 341.814 679.883 337.29 682.599 333.29C683.18 334.712 684.312 335.279 685.998 334.987C689.166 332.478 691.432 329.084 692.796 324.804C693.843 332.781 694.411 340.699 694.496 348.563C700.965 345.174 707.763 343.761 714.891 344.321C713.394 345.522 712.262 346.937 711.492 348.563C710.926 350.26 709.792 351.392 708.093 351.957C703.976 354.489 702.844 357.883 704.694 362.14C708.129 359.84 710.962 357.013 713.192 353.654C715.036 350.113 717.867 347.85 721.69 346.866C723.179 346.644 724.312 347.209 725.089 348.563C722.105 354.992 720.973 361.78 721.69 368.928C727.808 367.536 731.208 363.577 731.888 357.049C735.006 351.377 736.99 345.154 737.836 338.381C739.021 341.918 741.004 344.747 743.785 346.866C743.785 350.26 743.785 353.654 743.785 357.049C750.536 354.589 756.202 350.347 760.781 344.321C763.018 343.425 764.151 344.273 764.18 346.866C761.237 351.901 758.971 357.276 757.382 362.988C758.391 363.776 759.525 364.059 760.781 363.837C762.569 364.09 764.269 363.808 765.88 362.988C767.964 360.214 770.229 357.668 772.678 355.351C774.257 357.369 774.823 359.631 774.378 362.14C774.861 365.39 774.295 368.217 772.678 370.625C769.082 373.32 768.516 376.714 770.979 380.807C776.863 377.598 783.094 376.75 789.675 378.262C780.503 383.719 774.273 391.356 770.979 401.172C776.88 401.807 781.979 400.11 786.275 396.081C787.948 401.05 788.514 406.141 787.975 411.354C785.15 414.28 783.451 417.958 782.876 422.385C783.774 427.242 784.907 432.052 786.275 436.81C792.098 429.958 794.364 422.037 793.074 413.051C794.301 412.342 795.151 411.212 795.623 409.657C796.471 416.422 796.755 423.21 796.473 430.022C796.473 431.154 796.473 432.284 796.473 433.416C795.424 433.605 794.575 434.17 793.924 435.113C792.481 440.24 791.063 445.331 789.675 450.387C784.083 455.912 781.25 462.701 781.177 470.751C779.802 467.71 778.952 464.316 778.627 460.569C776.367 458.733 773.817 457.601 770.979 457.175C767.008 460.194 762.192 461.891 756.532 462.266C753.723 461.723 752.023 460.026 751.433 457.175C748.738 461.854 746.188 466.38 743.785 470.751C744.303 457.886 741.188 446.007 734.437 435.113C716.367 420.929 695.689 415.555 672.401 418.991C665.213 417.099 658.415 414.272 652.005 410.506C631.785 383.943 613.089 356.509 595.918 328.199C598.593 322.417 600.293 316.195 601.017 309.531C602.122 309.015 603.255 308.45 604.416 307.834C605.823 315.695 606.673 323.613 606.965 331.593C610.667 336.629 612.649 336.064 612.914 329.896C616.273 324.139 620.804 319.048 626.511 314.622C627.913 320.769 628.763 326.992 629.061 333.29C630.779 334.71 632.762 335.275 635.009 334.987C634.997 329.649 636.697 325.125 640.108 321.41C639.551 312.289 640.117 303.238 641.808 294.257C642.969 294.873 644.102 295.438 645.207 295.954Z" fill="#5983C2"/>
<path opacity="0.459" fill-rule="evenodd" clip-rule="evenodd" d="M672.401 318.016C669.568 321.975 666.168 325.369 662.203 328.198C663.903 323.107 667.302 319.713 672.401 318.016Z" fill="#C8D5EC"/>
<path fill-rule="evenodd" clip-rule="evenodd" d="M612.915 329.896C612.65 336.064 610.668 336.63 606.966 331.593C606.674 323.613 605.824 315.695 604.417 307.834C603.256 308.45 602.122 309.015 601.018 309.531C601.33 304.995 603.314 303.863 606.966 306.137C607.541 314.702 608.674 323.187 610.365 331.593C611.016 330.649 611.866 330.084 612.915 329.896Z" fill="#A3B9DD"/>
<path fill-rule="evenodd" clip-rule="evenodd" d="M743.785 470.751C746.189 466.38 748.738 461.854 751.434 457.175C752.023 460.026 753.723 461.723 756.532 462.266C762.192 461.891 767.009 460.194 770.979 457.175C773.818 457.601 776.367 458.733 778.628 460.569C778.952 464.316 779.802 467.71 781.177 470.751C782.877 470.751 784.576 470.751 786.276 470.751C799.637 476.862 812.668 483.934 825.367 491.965C827.979 493.848 829.111 496.394 828.766 499.601C831.246 499.488 833.512 500.053 835.565 501.298C837.575 506.734 839.841 512.109 842.363 517.42C841.797 518.269 841.23 519.117 840.664 519.966C837.36 518.797 833.96 517.948 830.466 517.42C829.23 515.046 828.381 512.501 827.917 509.784C572.562 510.337 317.337 512.034 62.2378 514.875C58.1936 513.064 56.494 514.761 57.139 519.966C313.216 519.966 569.29 519.966 825.367 519.966C825.367 520.531 825.367 521.098 825.367 521.663C565.325 521.663 305.283 521.663 45.2416 521.663C45.0739 517.018 45.6405 512.492 46.9412 508.087C54.3504 501.251 61.7155 494.463 69.0363 487.722C86.5626 480.105 104.125 472.469 121.725 464.812C123.795 460.314 123.228 456.072 120.025 452.084C120.156 449.962 121.289 448.549 123.424 447.841C120.579 445.285 118.879 442.175 118.325 438.507C120.025 438.507 121.725 438.507 123.424 438.507C122.778 442.237 123.912 445.066 126.823 446.992C127.957 447.558 129.089 448.124 130.223 448.69C130.832 451.865 132.532 454.41 135.321 456.326C136.993 457.329 138.126 456.762 138.721 454.629C137.487 450.159 135.221 446.482 131.922 443.598C131.78 438.801 130.647 434.275 128.523 430.022C125.666 424.792 124.533 419.135 125.124 413.051C127.39 413.051 129.656 413.051 131.922 413.051C134.079 409.106 136.345 405.145 138.721 401.172C138.569 396.018 136.869 391.494 133.622 387.595C135.024 386.092 136.724 385.527 138.721 385.898C138.721 380.242 138.721 374.584 138.721 368.928C143.389 369.459 147.922 368.894 152.318 367.231C153.429 364.49 154.279 361.661 154.867 358.745C158.018 362.735 160.568 362.168 162.515 357.048C163.629 349.731 166.178 342.942 170.164 336.684C170.88 344.103 172.013 351.457 173.563 358.745C174.213 359.689 175.063 360.254 176.112 360.442C176.411 366.832 179.811 370.226 186.31 370.625C187.085 363.663 185.951 357.159 182.911 351.109C183.482 349.361 184.616 348.512 186.31 348.563C186.876 348.563 187.444 348.563 188.01 348.563C188.803 353.31 191.635 355.574 196.508 355.351C183.067 393.628 169.753 432.096 156.567 470.751C155.728 473.524 155.445 476.353 155.717 479.237C166.481 479.237 177.246 479.237 188.01 479.237C189.295 468.883 192.128 458.982 196.508 449.538C226.53 448.69 256.555 448.406 286.588 448.69C285.129 459.276 282.298 469.458 278.09 479.237C288.853 479.237 299.619 479.237 310.382 479.237C317.131 454.341 324.214 429.452 331.628 404.566C343.18 374.486 353.378 343.939 362.221 312.925C365.054 308.399 367.886 308.399 370.719 312.925C376.871 326.959 385.086 339.404 395.363 350.26C415.434 381.26 435.546 412.372 455.7 443.598C467.138 456.17 480.451 466.069 495.641 473.297C527.118 479.343 558.845 480.759 590.82 477.54C597.62 470.682 606.118 467.853 616.314 469.054C631.371 469.857 646.1 472.968 660.504 478.388C684.865 479.52 709.227 479.52 733.588 478.388C737.782 476.727 741.182 474.181 743.785 470.751ZM131.922 443.598C132.489 445.861 133.055 448.124 133.622 450.387C132.489 449.821 131.356 449.255 130.223 448.69C129.819 446.499 130.386 444.802 131.922 443.598Z" fill="#5782C2"/>
<path fill-rule="evenodd" clip-rule="evenodd" d="M635.009 321.41C636.45 323.32 638.15 323.32 640.108 321.41C636.697 325.125 634.997 329.65 635.009 334.987C632.762 335.275 630.779 334.71 629.06 333.29C628.763 326.992 627.913 320.769 626.511 314.622C620.804 319.048 616.273 324.139 612.914 329.896C614.83 321.763 619.361 315.54 626.511 311.228C628.139 310.459 629.557 309.329 630.76 307.834C631.044 308.399 631.326 308.966 631.61 309.531C629.451 316.292 629.451 323.08 631.61 329.896C632.749 326.856 633.882 324.027 635.009 321.41Z" fill="#7494C4"/>
<path fill-rule="evenodd" clip-rule="evenodd" d="M310.382 336.684C314.64 334.992 319.173 334.992 323.979 336.684C322.149 346.009 319.316 355.061 315.481 363.837C285.476 365.534 255.449 366.099 225.401 365.534C226.979 355.447 229.812 345.829 233.899 336.684C258.828 336.684 283.754 336.684 308.683 336.684C310.153 356.733 312.418 356.733 315.481 336.684C313.782 336.684 312.082 336.684 310.382 336.684Z" fill="#5782C2"/>
<path opacity="0.175" fill-rule="evenodd" clip-rule="evenodd" d="M682.599 333.29C679.883 337.29 678.184 341.814 677.5 346.866C677.793 345.183 677.225 344.052 675.801 343.472C675.894 333.846 678.16 324.796 682.599 316.319C681.197 314.815 679.497 314.25 677.5 314.622C679.676 312.194 682.509 311.062 685.998 311.228C684.474 317.395 682.208 323.335 679.2 329.047C680.145 330.763 681.277 332.176 682.599 333.29Z" fill="#C6D9EF"/>
<path opacity="0.953" fill-rule="evenodd" clip-rule="evenodd" d="M743.785 346.866C741.004 344.747 739.021 341.918 737.836 338.381C736.99 345.154 735.006 351.377 731.888 357.049C733.127 349.191 733.694 341.271 733.587 333.29C735.834 333.001 737.818 333.567 739.536 334.987C741.467 338.793 742.884 342.753 743.785 346.866Z" fill="#A0B4D5"/>
<path opacity="0.718" fill-rule="evenodd" clip-rule="evenodd" d="M145.519 343.472C144.263 343.25 143.13 343.533 142.119 344.32C143.959 346.577 145.092 349.123 145.519 351.957C142.717 348.684 139.885 345.289 137.021 341.775C140.559 339.409 143.392 339.974 145.519 343.472Z" fill="#B1C1DC"/>
<path opacity="0.427" fill-rule="evenodd" clip-rule="evenodd" d="M176.112 360.442C175.062 360.254 174.213 359.689 173.562 358.745C172.012 351.457 170.879 344.103 170.163 336.684C166.178 342.942 163.628 349.731 162.515 357.048C155.422 354.511 149.757 349.985 145.519 343.472C151.01 346.391 155.826 350.35 159.965 355.351C161.086 346.893 164.486 339.54 170.163 333.29C172.418 342.172 174.401 351.222 176.112 360.442Z" fill="#BACBE9"/>
<path opacity="0.584" fill-rule="evenodd" clip-rule="evenodd" d="M711.492 348.563C712.262 346.937 713.394 345.522 714.892 344.32C707.763 343.76 700.965 345.174 694.496 348.563C694.411 340.699 693.843 332.78 692.797 324.804C691.432 329.084 689.166 332.478 685.998 334.987C687.314 329.872 689.579 325.346 692.797 321.41C693.793 321.765 694.642 322.332 695.346 323.107C696.699 330.328 696.415 337.398 694.496 344.32C701.652 342.778 709.018 341.929 716.591 341.775C717.291 345.972 715.592 348.234 711.492 348.563Z" fill="#B4C7E2"/>
<path opacity="0.416" fill-rule="evenodd" clip-rule="evenodd" d="M721.69 346.866C722.895 345.332 724.595 344.767 726.789 345.169C724.112 352.285 723.262 359.638 724.239 367.231C726.556 363.525 729.106 360.131 731.888 357.049C731.208 363.577 727.809 367.537 721.69 368.928C720.973 361.78 722.105 354.992 725.089 348.563C724.313 347.209 723.179 346.644 721.69 346.866Z" fill="#C2D2EA"/>
<path opacity="0.671" fill-rule="evenodd" clip-rule="evenodd" d="M764.181 346.866C764.152 344.273 763.018 343.425 760.781 344.321C756.203 350.347 750.536 354.589 743.785 357.049C743.785 353.654 743.785 350.26 743.785 346.866C745.148 349.33 745.998 352.158 746.335 355.351C752.19 348.083 759.272 342.425 767.58 338.381C769.828 342.376 768.696 345.205 764.181 346.866Z" fill="#AFC3DF"/>
<path fill-rule="evenodd" clip-rule="evenodd" d="M308.683 336.684C309.249 336.684 309.816 336.684 310.382 336.684C312.082 336.684 313.781 336.684 315.481 336.684C312.418 356.733 310.153 356.733 308.683 336.684Z" fill="#96B1DE"/>
<path fill-rule="evenodd" clip-rule="evenodd" d="M145.519 343.472C149.757 349.986 155.423 354.512 162.515 357.049C160.568 362.169 158.018 362.736 154.867 358.746C154.279 361.661 153.429 364.49 152.318 367.231C147.922 368.894 143.389 369.459 138.721 368.928C138.721 374.584 138.721 380.242 138.721 385.899C136.724 385.527 135.024 386.092 133.622 387.596C136.869 391.494 138.569 396.018 138.721 401.172C136.345 405.145 134.079 409.106 131.922 413.052C129.656 413.052 127.39 413.052 125.124 413.052C124.533 419.136 125.666 424.792 128.523 430.022C126.677 430.226 125.544 431.358 125.124 433.416C126.431 437.854 126.998 442.379 126.823 446.993C123.912 445.067 122.778 442.238 123.424 438.508C121.724 438.508 120.025 438.508 118.325 438.508C118.879 442.175 120.579 445.286 123.424 447.841C121.289 448.549 120.156 449.963 120.025 452.084C116.269 444.199 112.87 436.279 109.827 428.325C109.827 427.76 109.827 427.193 109.827 426.628C109.545 418.688 109.828 410.769 110.677 402.869C111.654 411.297 113.637 419.217 116.626 426.628C116.626 428.89 116.626 431.154 116.626 433.416C118.325 433.416 120.025 433.416 121.724 433.416C124.38 424.834 123.247 416.914 118.325 409.658C117.653 403.404 117.37 397.181 117.475 390.99C121.158 394.667 124.84 398.343 128.523 402.021C131.3 402.859 134.133 403.141 137.021 402.869C135.046 394.107 129.947 387.886 121.724 384.202C119.129 384.326 117.43 383.194 116.626 380.808C116.437 379.76 115.871 378.912 114.926 378.262C122.004 376.882 128.802 377.731 135.321 380.808C135.888 379.11 136.455 377.413 137.021 375.716C137.293 372.568 136.159 370.306 133.622 368.928C133.343 364.368 133.626 359.842 134.472 355.352C135.675 356.847 137.092 357.977 138.721 358.746C140.326 364.663 144.292 366.926 150.618 365.534C151.437 359.881 149.737 355.357 145.519 351.958C145.092 349.123 143.959 346.578 142.12 344.321C143.13 343.533 144.263 343.25 145.519 343.472Z" fill="#6589C0"/>
<path opacity="0.533" fill-rule="evenodd" clip-rule="evenodd" d="M774.378 362.14C774.824 359.632 774.258 357.369 772.679 355.352C770.229 357.668 767.964 360.214 765.88 362.988C764.269 363.808 762.569 364.09 760.781 363.837C765.108 360.334 769.074 356.375 772.679 351.958C775.136 353.096 776.268 355.077 776.078 357.897C776.03 359.713 775.464 361.127 774.378 362.14Z" fill="#C4D2E6"/>
<path opacity="0.094" fill-rule="evenodd" clip-rule="evenodd" d="M708.093 351.958C707.871 353.212 708.155 354.344 708.943 355.352C710.084 354.075 711.499 353.509 713.192 353.655C710.962 357.013 708.129 359.84 704.694 362.14C702.845 357.884 703.977 354.49 708.093 351.958Z" fill="#C5D8F1"/>
<path opacity="0.439" fill-rule="evenodd" clip-rule="evenodd" d="M138.72 358.746C137.091 357.977 135.675 356.847 134.471 355.352C133.626 359.842 133.343 364.368 133.621 368.928C131.961 364.198 131.395 359.107 131.922 353.654C136.124 352.955 138.39 354.652 138.72 358.746Z" fill="#BECFEA"/>
<path opacity="0.361" fill-rule="evenodd" clip-rule="evenodd" d="M145.519 351.958C149.737 355.357 151.437 359.881 150.618 365.534C144.292 366.926 140.326 364.663 138.721 358.746C140.635 359.801 142.335 361.215 143.82 362.988C145.519 364.12 147.219 364.12 148.918 362.988C147.394 359.447 146.26 355.769 145.519 351.958Z" fill="#B7CCED"/>
<path opacity="0.561" fill-rule="evenodd" clip-rule="evenodd" d="M186.31 348.563C184.616 348.512 183.482 349.361 182.911 351.109C185.951 357.159 187.085 363.664 186.31 370.625C179.811 370.226 176.411 366.832 176.112 360.443C177.691 362.88 179.673 365.142 182.061 367.231C183.038 359.638 182.188 352.285 179.512 345.169C182.707 344.709 184.972 345.841 186.31 348.563Z" fill="#A9BDDF"/>
<path opacity="0.741" fill-rule="evenodd" clip-rule="evenodd" d="M133.621 368.928C136.159 370.306 137.292 372.568 137.021 375.716C136.454 377.413 135.887 379.11 135.321 380.807C128.802 377.73 122.004 376.882 114.926 378.262C115.871 378.912 116.437 379.76 116.625 380.807C112.322 380.249 110.623 378.27 111.526 374.867C118.863 373.814 125.945 374.662 132.772 377.413C133.61 374.64 133.894 371.811 133.621 368.928Z" fill="#A8BBDC"/>
<path fill-rule="evenodd" clip-rule="evenodd" d="M222.002 374.019C252.029 374.019 282.055 374.019 312.082 374.019C309.69 383.853 306.857 393.471 303.584 402.869C273.557 402.869 243.531 402.869 213.504 402.869C214.42 392.6 217.253 382.985 222.002 374.019Z" fill="#5682C2"/>
<path opacity="0.098" fill-rule="evenodd" clip-rule="evenodd" d="M772.679 370.625C772.412 372.955 772.696 375.219 773.529 377.413C780.909 373.877 788.557 373.311 796.474 375.716C787.207 381.856 779.275 389.493 772.679 398.626C775.72 399.509 778.553 398.944 781.177 396.929C783.686 392.444 787.085 388.767 791.375 385.899C793.222 394.883 792.089 403.368 787.976 411.354C788.514 406.141 787.948 401.05 786.276 396.081C781.979 400.11 776.88 401.807 770.979 401.172C774.273 391.356 780.504 383.72 789.675 378.262C783.094 376.75 776.863 377.598 770.979 380.807C768.517 376.714 769.083 373.32 772.679 370.625Z" fill="#B4C6E2"/>
<path opacity="0.62" fill-rule="evenodd" clip-rule="evenodd" d="M121.725 384.202C129.947 387.886 135.046 394.107 137.021 402.869C134.133 403.141 131.3 402.859 128.523 402.021C124.841 398.343 121.158 394.667 117.476 390.99C117.37 397.181 117.653 403.404 118.325 409.658C115.334 402.79 113.635 395.436 113.227 387.596C115.015 387.343 116.714 387.625 118.325 388.444C137.147 405.468 138.28 404.052 121.725 384.202Z" fill="#C6D6ED"/>
<path opacity="0.473" fill-rule="evenodd" clip-rule="evenodd" d="M116.625 426.628C113.637 419.217 111.654 411.297 110.676 402.869C109.828 410.769 109.545 418.687 109.827 426.628C108.149 418.473 107.582 409.988 108.127 401.172C109.827 401.172 111.526 401.172 113.226 401.172C114.175 409.684 115.308 418.17 116.625 426.628Z" fill="#BFCEE8"/>
<path opacity="0.802" fill-rule="evenodd" clip-rule="evenodd" d="M796.473 430.022C796.755 423.21 796.471 416.422 795.623 409.657C795.151 411.212 794.301 412.342 793.074 413.052C792.401 407.991 793.534 403.465 796.473 399.475C797.469 399.83 798.319 400.397 799.022 401.172C799.952 411.158 799.102 420.775 796.473 430.022Z" fill="#B9C7E1"/>
<path fill-rule="evenodd" clip-rule="evenodd" d="M210.104 411.354C240.132 411.354 270.157 411.354 300.184 411.354C296.336 420.753 292.937 430.37 289.987 440.204C259.981 441.902 229.954 442.467 199.907 441.902C199.635 439.018 199.917 436.189 200.757 433.416C204.642 426.377 207.757 419.022 210.104 411.354Z" fill="#5581C1"/>
<path opacity="0.259" fill-rule="evenodd" clip-rule="evenodd" d="M118.325 409.657C123.246 416.914 124.379 424.834 121.724 433.416C120.024 433.416 118.325 433.416 116.625 433.416C116.625 431.154 116.625 428.89 116.625 426.628C117.851 427.337 118.701 428.467 119.174 430.022C119.639 427.305 120.489 424.759 121.724 422.385C119.4 418.48 118.267 414.238 118.325 409.657Z" fill="#D1DDF3"/>
<path opacity="0.62" fill-rule="evenodd" clip-rule="evenodd" d="M787.976 411.354C787.695 415.304 786.563 418.979 784.577 422.385C785.812 424.76 786.662 427.305 787.126 430.022C789.647 424.417 791.63 418.76 793.075 413.052C794.365 422.037 792.099 429.958 786.276 436.81C784.908 432.052 783.774 427.242 782.877 422.385C783.451 417.958 785.151 414.28 787.976 411.354Z" fill="#B8CBE8"/>
<path opacity="0.388" fill-rule="evenodd" clip-rule="evenodd" d="M128.523 430.022C130.647 434.275 131.78 438.801 131.923 443.598C130.386 444.802 129.82 446.499 130.223 448.69C129.09 448.124 127.957 447.558 126.824 446.993C126.998 442.378 126.431 437.854 125.124 433.416C125.544 431.358 126.677 430.226 128.523 430.022Z" fill="#ABC2E8"/>
<path opacity="0.447" fill-rule="evenodd" clip-rule="evenodd" d="M796.473 433.416C795.841 439.86 793.574 445.516 789.675 450.387C791.063 445.331 792.481 440.24 793.924 435.113C794.575 434.17 795.425 433.604 796.473 433.416Z" fill="#B6C7E5"/>
<path opacity="0.333" fill-rule="evenodd" clip-rule="evenodd" d="M770.979 457.175C769.93 457.363 769.08 457.929 768.429 458.872C767.296 456.61 767.296 454.346 768.429 452.084C772.276 445.355 775.959 438.567 779.477 431.719C781.622 441.801 778.79 450.287 770.979 457.175Z" fill="#B9D0ED"/>
<path opacity="0.529" fill-rule="evenodd" clip-rule="evenodd" d="M131.922 443.599C135.221 446.482 137.487 450.159 138.721 454.63C138.126 456.763 136.993 457.33 135.322 456.327C132.532 454.411 130.832 451.865 130.223 448.69C131.356 449.255 132.489 449.822 133.622 450.387C133.055 448.125 132.489 445.861 131.922 443.599Z" fill="#BACFEE"/>
<path opacity="0.439" fill-rule="evenodd" clip-rule="evenodd" d="M789.675 450.387C787.431 456.007 785.164 461.664 782.876 467.357C784.139 468.515 785.271 469.647 786.276 470.751C784.576 470.751 782.876 470.751 781.177 470.751C781.25 462.701 784.083 455.912 789.675 450.387Z" fill="#B7C9E6"/>
<path opacity="0.482" fill-rule="evenodd" clip-rule="evenodd" d="M109.827 428.325C112.869 436.279 116.269 444.199 120.025 452.084C123.228 456.072 123.795 460.315 121.724 464.812C104.125 472.469 86.5624 480.106 69.0361 487.722C85.6005 477.19 103.163 468.422 121.724 461.418C114.888 451.405 110.922 440.374 109.827 428.325Z" fill="#B2C6E5"/>
<path opacity="0.329" fill-rule="evenodd" clip-rule="evenodd" d="M786.275 470.751C803.79 475.819 819.654 484.021 833.865 495.359C837.203 497.821 839.468 500.932 840.663 504.693C838.964 503.561 837.264 502.43 835.564 501.299C833.511 500.053 831.246 499.488 828.766 499.601C829.111 496.394 827.979 493.848 825.367 491.965C812.667 483.934 799.636 476.863 786.275 470.751Z" fill="#B4C8E3"/>
<path opacity="0.651" fill-rule="evenodd" clip-rule="evenodd" d="M69.0365 487.722C61.7157 494.463 54.3506 501.251 46.9414 508.087C52.1315 498.945 59.4965 492.157 69.0365 487.722Z" fill="#B1C2E3"/>
<path fill-rule="evenodd" clip-rule="evenodd" d="M835.564 501.298C837.264 502.43 838.964 503.561 840.663 504.692C843.053 505.495 844.186 507.192 844.062 509.784C844.062 512.046 844.062 514.31 844.062 516.572C844.062 518.269 844.062 519.966 844.062 521.663C837.83 521.663 831.599 521.663 825.367 521.663C825.367 521.098 825.367 520.531 825.367 519.966C825.367 518.269 825.367 516.572 825.367 514.875C570.99 514.875 316.614 514.875 62.2373 514.875C317.337 512.034 572.562 510.337 827.916 509.784C828.38 512.501 829.23 515.046 830.465 517.42C833.96 517.948 837.359 518.797 840.663 519.966C841.229 519.117 841.797 518.269 842.363 517.42C839.841 512.109 837.575 506.734 835.564 501.298Z" fill="#5584BF"/>
<path opacity="0.168" fill-rule="evenodd" clip-rule="evenodd" d="M845.762 504.692C857.644 513.655 858.776 523.837 849.162 535.239C843.257 537.89 837.026 539.304 830.466 539.482C673.244 540.208 516.029 539.36 358.821 536.937C318.024 537.105 277.233 537.67 236.449 538.634C175.568 536.292 114.665 534.878 53.7394 534.391C41.3677 530.895 37.4018 523.258 41.8421 511.481C41.8421 514.31 41.8421 517.137 41.8421 519.966C310.382 520.249 578.922 519.966 847.462 519.117C848.239 518.415 848.806 517.566 849.162 516.572C847.759 512.667 846.626 508.706 845.762 504.692Z" fill="black"/>
<path fill-rule="evenodd" clip-rule="evenodd" d="M62.2378 514.875C316.615 514.875 570.99 514.875 825.367 514.875C825.367 516.572 825.367 518.269 825.367 519.966C569.291 519.966 313.216 519.966 57.1389 519.966C56.4939 514.761 58.1936 513.064 62.2378 514.875Z" fill="#5882C5"/>
<path opacity="0.995" fill-rule="evenodd" clip-rule="evenodd" d="M46.9414 508.087C45.6407 512.492 45.074 517.019 45.2418 521.663C305.284 521.663 565.325 521.663 825.367 521.663C831.6 521.663 837.831 521.663 844.063 521.663C844.063 519.966 844.063 518.269 844.063 516.572C845.651 518.385 846.218 520.647 845.763 523.36C578.356 523.36 310.948 523.36 43.5422 523.36C43.5422 520.531 43.5422 517.704 43.5422 514.875C43.0817 511.685 44.2149 509.422 46.9414 508.087Z" fill="#7194C2"/>
<path opacity="0.785" fill-rule="evenodd" clip-rule="evenodd" d="M844.062 509.784C844.628 509.784 845.196 509.784 845.762 509.784C846.625 513.797 847.759 517.758 849.161 521.663C848.806 522.658 848.238 523.506 847.462 524.209C578.922 525.057 310.382 525.341 41.8418 525.057C41.8418 522.228 41.8418 519.401 41.8418 516.572C41.8418 515.44 42.4083 514.875 43.5414 514.875C43.5414 517.704 43.5414 520.531 43.5414 523.36C310.948 523.36 578.356 523.36 845.762 523.36C846.218 520.647 845.65 518.384 844.062 516.572C844.062 514.31 844.062 512.046 844.062 509.784Z" fill="#728092"/>
</g>
<path d="M1168.68 413C1168.68 436.312 1148.59 451.688 1125.53 451.688C1102.71 451.688 1082.38 436.312 1082.38 413C1082.38 389.688 1102.71 374.312 1125.53 374.312C1148.59 374.312 1168.68 389.688 1168.68 413ZM1104.94 413C1104.94 424.904 1114.86 432.592 1125.53 432.592C1135.7 432.592 1145.86 424.904 1145.86 413C1145.86 401.096 1135.7 393.408 1125.53 393.408C1114.86 393.408 1104.94 401.096 1104.94 413ZM1144.13 358.688V225.016C1137.18 220.552 1129.99 215.84 1123.05 211.624L1131.73 195.256L1168.18 212.864V275.36H1202.66V294.952H1168.18V358.688H1144.13ZM988.136 352.24V332.152H1027.07V289.248H1051.38V332.152H1123.3V352.24H988.136ZM1097.75 229.232V307.6H1073.94V249.568H1007.48V229.232H1097.75ZM1259.03 336.368V316.528H1445.53V336.368H1364.68V412.752H1339.88V336.368H1259.03ZM1295.73 281.56L1340.13 243.368V230.224H1300.94V210.136H1403.61V230.224H1364.43V243.368C1379.31 256.264 1394.19 268.912 1408.82 281.808C1404.36 286.768 1399.65 291.728 1395.18 296.936C1381.05 286.024 1366.41 274.864 1352.28 263.704C1338.14 274.864 1323.76 285.776 1309.37 296.688C1304.91 291.48 1300.2 286.52 1295.73 281.56ZM1691.12 413C1691.12 436.312 1671.03 451.688 1647.97 451.688C1625.15 451.688 1604.81 436.312 1604.81 413C1604.81 389.688 1625.15 374.312 1647.97 374.312C1671.03 374.312 1691.12 389.688 1691.12 413ZM1627.38 413C1627.38 424.904 1637.3 432.592 1647.97 432.592C1658.13 432.592 1668.3 424.904 1668.3 413C1668.3 401.096 1658.13 393.408 1647.97 393.408C1637.3 393.408 1627.38 401.096 1627.38 413ZM1666.57 358.688V225.016C1659.62 220.552 1652.43 215.84 1645.49 211.624L1654.17 195.256L1690.62 212.864V275.36H1725.09V294.952H1690.62V358.688H1666.57ZM1510.57 352.24V332.152H1549.51V289.248H1573.81V332.152H1645.73V352.24H1510.57ZM1620.19 229.232V307.6H1596.38V249.568H1529.92V229.232H1620.19ZM1848.43 232.704V251.8C1868.76 256.264 1881.16 272.384 1881.16 291.48C1881.16 314.296 1864.05 332.4 1836.27 332.4C1808.75 332.4 1791.63 314.296 1791.63 291.48C1791.63 272.384 1803.79 256.264 1824.37 251.8V232.704H1848.43ZM1836.27 313.304C1849.42 313.304 1858.35 304.376 1858.35 291.48C1858.35 278.336 1849.42 269.408 1836.27 269.408C1823.38 269.408 1814.45 278.336 1814.45 291.48C1814.45 304.376 1823.38 313.304 1836.27 313.304ZM1937.71 337.112V316.28H1897.78V297.184H1937.71V275.112H1897.78V256.016H1937.71V225.016C1930.51 220.552 1923.57 215.84 1916.38 211.624C1919.11 206.168 1922.33 200.712 1925.31 195.256C1937.21 201.208 1949.36 206.912 1961.51 212.864V337.112H1937.71ZM1961.02 357.944V428.128H1937.46V378.28H1855.87V357.944H1961.02ZM2207.95 212.864V337.112H2183.9V225.016C2176.95 220.552 2169.76 215.84 2162.82 211.624C2165.55 206.168 2168.52 200.712 2171.5 195.256L2207.95 212.864ZM2035.59 324.96L2079.99 281.56V237.168H2105.28V281.56L2147.94 323.968L2133.06 338.352C2119.67 325.704 2106.03 313.304 2092.63 300.904L2049.48 339.344C2045.02 334.632 2040.06 329.92 2035.59 324.96ZM2436.96 291.232V213.36H2461.51V271.144H2536.9V291.232H2500.94V316.776H2579.06V336.616H2392.56V316.776H2476.39V291.232H2436.96ZM2439.44 468.056V403.576H2508.63V377.536H2439.44V357.944H2532.44V421.928H2463.24V448.216H2537.4V468.056H2439.44ZM2705.36 235.68V255.024C2725.7 259.488 2738.1 275.608 2738.1 294.456C2738.1 317.52 2720.99 335.624 2693.21 335.624C2665.68 335.624 2648.57 317.52 2648.57 294.456C2648.57 275.608 2660.72 259.488 2681.31 255.024V235.68H2705.36ZM2693.21 316.528C2706.36 316.528 2715.28 307.6 2715.28 294.456C2715.28 281.56 2706.36 272.632 2693.21 272.632C2680.32 272.632 2671.39 281.56 2671.39 294.456C2671.39 307.6 2680.32 316.528 2693.21 316.528ZM2810.27 212.864V337.112H2786.21V225.016C2779.27 220.552 2772.08 215.84 2765.13 211.624C2767.86 206.168 2770.84 200.712 2773.81 195.256L2810.27 212.864ZM2920.01 262.216V289H2973.58V308.592H2920.01V335.624H2986.23V355.464H2895.96V242.376H2981.27V262.216H2920.01ZM3034.59 337.112V294.456H2993.92V274.616H3034.59V225.016C3027.4 220.552 3020.45 215.84 3013.26 211.624L3022.19 195.256C3034.09 201.208 3046.49 206.912 3058.4 212.864V337.112H3034.59ZM3235.48 445.984V381.008L3221.59 370.344C3225.07 365.384 3228.79 360.424 3232.01 355.464C3240.94 360.92 3249.62 365.88 3258.3 371.336V388.448H3310.13V372.328L3295.99 361.416C3299.71 356.704 3302.94 351.496 3306.66 346.784C3315.34 352.24 3324.27 357.2 3332.95 362.656V445.984H3235.48ZM3258.3 426.64H3310.13V406.552H3258.3V426.64ZM3227.55 241.136V333.392H3144.47V241.136H3227.55ZM3167.78 260.48V314.048H3203.74V260.48H3167.78ZM3263.26 337.112V235.68L3242.92 222.536L3251.35 206.416L3286.32 223.28V268.912H3312.61V225.016C3305.42 220.304 3298.23 215.84 3291.03 211.376L3299.47 195.256C3311.62 201.208 3323.77 206.912 3335.67 212.864V337.112H3312.61V289.248H3286.32V337.112H3263.26Z" fill="#3E3E3E"/>
</g>
<defs>
<filter id="filter0_d_200_774" x="0" y="0" width="3358.67" height="607" filterUnits="userSpaceOnUse" color-interpolation-filters="sRGB">
<feFlood flood-opacity="0" result="BackgroundImageFix"/>
<feColorMatrix in="SourceAlpha" type="matrix" values="0 0 0 0 0 0 0 0 0 0 0 0 0 0 0 0 0 0 127 0" result="hardAlpha"/>
<feOffset dx="8" dy="5"/>
<feGaussianBlur stdDeviation="7.5"/>
<feComposite in2="hardAlpha" operator="out"/>
<feColorMatrix type="matrix" values="0 0 0 0 0 0 0 0 0 0 0 0 0 0 0 0 0 0 0.25 0"/>
<feBlend mode="normal" in2="BackgroundImageFix" result="effect1_dropShadow_200_774"/>
<feBlend mode="normal" in="SourceGraphic" in2="effect1_dropShadow_200_774" result="shape"/>
</filter>
<clipPath id="clip0_200_774">
<rect width="894" height="577" fill="white" transform="translate(7 10)"/>
</clipPath>
</defs>
</svg>
