<svg width="1687" height="340" viewBox="0 0 1687 340" fill="none" xmlns="http://www.w3.org/2000/svg">
<g clip-path="url(#clip0_200_775)">
<path fill-rule="evenodd" clip-rule="evenodd" d="M388.5 47.5C387.778 47.0825 387.278 46.4158 387 45.5C386.617 46.056 386.117 46.3893 385.5 46.5C385.238 45.0222 385.571 43.6888 386.5 42.5C387.95 43.8498 388.617 45.5165 388.5 47.5Z" fill="#38558B"/>
<path fill-rule="evenodd" clip-rule="evenodd" d="M385.5 46.5C384.088 51.0809 381.088 54.2475 376.5 56C375.748 56.6708 375.414 57.5041 375.5 58.5C373.335 58.8841 371.668 58.2174 370.5 56.5C377.128 55.5277 382.128 52.1944 385.5 46.5Z" fill="#38558B"/>
<path fill-rule="evenodd" clip-rule="evenodd" d="M393.5 53.5C396.605 54.5516 399.605 55.8849 402.5 57.5C398.7 58.9838 395.033 60.6505 391.5 62.5C392.957 60.2152 394.957 58.3819 397.5 57C395.676 56.34 394.343 55.1733 393.5 53.5Z" fill="#38558B"/>
<path fill-rule="evenodd" clip-rule="evenodd" d="M388.5 47.5C390.137 49.4752 391.804 51.4752 393.5 53.5C394.343 55.1733 395.676 56.34 397.5 57C394.957 58.3819 392.957 60.2152 391.5 62.5C391.167 63.5 390.5 64.1667 389.5 64.5C388.518 65.1408 387.518 65.8075 386.5 66.5C384.741 63.7341 382.407 61.7341 379.5 60.5C377.847 60.3404 376.514 59.6737 375.5 58.5C375.414 57.5041 375.748 56.6708 376.5 56C381.088 54.2475 384.088 51.0809 385.5 46.5C386.117 46.3893 386.617 46.056 387 45.5C387.278 46.4158 387.778 47.0825 388.5 47.5Z" fill="#38558B"/>
<path fill-rule="evenodd" clip-rule="evenodd" d="M379.5 60.5C382.407 61.7341 384.741 63.7341 386.5 66.5C387.518 65.8075 388.518 65.1408 389.5 64.5C388.783 66.9366 387.783 69.2699 386.5 71.5C384.908 67.3064 382.575 63.6397 379.5 60.5Z" fill="#38558B"/>
<path opacity="0.29" fill-rule="evenodd" clip-rule="evenodd" d="M343.5 69.5C341.742 67.8593 340.242 65.8593 339 63.5C335.985 70.3471 331.152 75.3471 324.5 78.5C331.87 73.7857 336.536 67.1191 338.5 58.5C340.729 61.8312 342.396 65.4979 343.5 69.5Z" fill="#2B4E89"/>
<path opacity="0.667" fill-rule="evenodd" clip-rule="evenodd" d="M343.5 69.5C346.558 73.5246 350.225 76.8579 354.5 79.5C348.778 78.0998 345.111 74.7665 343.5 69.5Z" fill="#315087"/>
<path opacity="0.459" fill-rule="evenodd" clip-rule="evenodd" d="M264.5 79.5001C252.988 79.172 241.654 79.5053 230.5 80.5001C229.167 80.5001 227.833 80.5001 226.5 80.5001C226.918 79.7785 227.584 79.2785 228.5 79.0001C240.674 78.1738 252.674 78.3404 264.5 79.5001Z" fill="#2B4E89"/>
<path opacity="0.972" fill-rule="evenodd" clip-rule="evenodd" d="M230.5 80.5C241.654 79.5052 252.988 79.1719 264.5 79.5C269.232 79.6268 273.232 81.2935 276.5 84.5C272.383 82.6291 268.049 81.4624 263.5 81C252.505 80.5002 241.505 80.3335 230.5 80.5Z" fill="#2B4E89"/>
<path fill-rule="evenodd" clip-rule="evenodd" d="M198.5 91.5005C200.083 96.0009 202.25 100.334 205 104.5C206.113 105.305 207.279 105.972 208.5 106.5C208.5 106.833 208.5 107.167 208.5 107.5C235.881 148.567 263.047 189.9 290 231.5C294.462 237.149 300.296 240.315 307.5 241C322.376 238.543 334.876 242.71 345 253.5C346.559 255.217 347.392 257.217 347.5 259.5C358.505 259.667 369.505 259.5 380.5 259C375.865 256.347 371.199 253.681 366.5 251C362.688 247.518 359.188 243.685 356 239.5C331.178 199.999 305.512 160.999 279 122.5C262.398 108.389 243.232 103.389 221.5 107.5C221.5 101.5 221.5 95.5005 221.5 89.5005C221.5 88.1672 221.5 86.8338 221.5 85.5005C223.5 84.1672 225.167 82.5005 226.5 80.5005C227.833 80.5005 229.167 80.5005 230.5 80.5005C241.505 80.334 252.505 80.5007 263.5 81.0005C268.049 81.4629 272.383 82.6296 276.5 84.5005C278.5 87.1672 280.833 89.5005 283.5 91.5005C285.218 97.5563 288.551 102.556 293.5 106.5C294.505 109.721 295.339 113.054 296 116.5C297.815 117.244 299.648 117.911 301.5 118.5C300.862 121.856 302.196 123.856 305.5 124.5C305.5 125.167 305.5 125.833 305.5 126.5C305.343 127.873 305.51 129.207 306 130.5C309.475 134.104 312.475 138.104 315 142.5C316.113 143.305 317.279 143.972 318.5 144.5C318.343 145.873 318.51 147.207 319 148.5C320.417 149.078 321.25 150.078 321.5 151.5C321.34 153.199 321.506 154.866 322 156.5C324.954 159.391 328.12 162.057 331.5 164.5C331.427 166.027 332.094 167.027 333.5 167.5C333.343 168.873 333.51 170.207 334 171.5C334.876 173.635 336.376 174.969 338.5 175.5C339.605 177.713 339.605 179.88 338.5 182C340.641 182.573 342.641 183.406 344.5 184.5C344.427 186.027 345.094 187.027 346.5 187.5C356.603 204.182 367.603 220.348 379.5 236C383.271 238.219 387.271 239.885 391.5 241C405.202 238.975 417.368 242.142 428 250.5C431.972 256.919 433.805 263.919 433.5 271.5C431.968 273.521 429.968 275.021 427.5 276C413.167 276.667 398.833 276.667 384.5 276C376.025 272.806 367.359 270.973 358.5 270.5C352.501 269.792 347.501 271.459 343.5 275.5C324.687 277.397 306.02 276.563 287.5 273C278.563 268.741 270.73 262.908 264 255.5C252.142 237.1 240.309 218.767 228.5 200.5C222.453 194.103 217.62 186.77 214 178.5C212.333 175.833 210.667 175.833 209 178.5C203.797 196.775 197.797 214.775 191 232.5C186.638 247.164 182.471 261.83 178.5 276.5C172.167 276.5 165.833 276.5 159.5 276.5C161.976 270.738 163.642 264.738 164.5 258.5C146.83 258.333 129.164 258.5 111.5 259C108.923 264.565 107.256 270.399 106.5 276.5C100.167 276.5 93.8336 276.5 87.5003 276.5C87.3401 274.801 87.5068 273.134 88.0003 271.5C95.7587 248.722 103.592 226.055 111.5 203.5C111.822 201.278 111.155 199.444 109.5 198C111.101 197.727 112.601 197.227 114 196.5C121.013 176.296 127.513 155.963 133.5 135.5C136.765 129.443 139.098 122.943 140.5 116C140.316 114.624 139.649 113.791 138.5 113.5C136.5 113.5 135.5 112.5 135.5 110.5C135.334 103.492 135.5 96.4926 136 89.5005C136.837 85.8431 138.67 82.8431 141.5 80.5005C153.14 79.4209 164.807 79.2543 176.5 80.0005C185.402 80.9505 192.736 84.7839 198.5 91.5005ZM169.5 115.5C170.625 117.129 171.959 118.629 173.5 120C168.467 120.829 163.467 120.662 158.5 119.5C159.074 117.941 159.74 116.441 160.5 115C163.507 114.699 166.507 114.865 169.5 115.5ZM178.5 126.5C179.759 130.025 181.759 133.025 184.5 135.5C185.435 137.861 186.768 140.028 188.5 142C176.171 142.5 163.838 142.667 151.5 142.5C151.5 141.5 151.5 140.5 151.5 139.5C153.242 135.456 154.909 131.289 156.5 127C163.826 126.5 171.159 126.334 178.5 126.5ZM197.5 159.5C196.778 159.918 196.278 160.584 196 161.5C194.445 159.485 192.611 159.152 190.5 160.5C191.309 162.071 191.643 163.738 191.5 165.5C175.5 165.5 159.5 165.5 143.5 165.5C144.703 161.89 145.703 158.223 146.5 154.5C147.391 152.709 148.391 150.876 149.5 149C163.5 148.333 177.5 148.333 191.5 149C194.94 151.717 196.94 155.217 197.5 159.5ZM146.5 172.5C145.21 173.058 144.377 174.058 144 175.5C142.826 179.535 141.659 183.535 140.5 187.5C140.167 187.5 139.833 187.5 139.5 187.5C138.418 186.406 137.752 185.073 137.5 183.5C138.71 179.872 139.71 176.206 140.5 172.5C142.611 171.258 144.611 171.258 146.5 172.5ZM191.5 177.5C188.864 180.809 186.197 184.142 183.5 187.5C181.833 187.5 180.167 187.5 178.5 187.5C177.644 183.43 176.477 179.43 175 175.5C173.989 174.663 172.822 174.33 171.5 174.5C171.369 178.952 170.702 183.286 169.5 187.5C169.167 187.5 168.833 187.5 168.5 187.5C167.396 185.611 166.063 183.945 164.5 182.5C162.929 179.256 160.595 176.589 157.5 174.5C156.28 174.887 155.613 175.72 155.5 177C156.773 179.216 156.773 181.383 155.5 183.5C153.577 179.971 152.911 175.971 153.5 171.5C166.5 171.5 179.5 171.5 192.5 171.5C192.167 173.5 191.833 175.5 191.5 177.5Z" fill="#2B4E89"/>
<path opacity="0.38" fill-rule="evenodd" clip-rule="evenodd" d="M198.5 91.5C192.736 84.7834 185.402 80.95 176.5 80C164.807 79.2538 153.14 79.4204 141.5 80.5C141.918 79.7784 142.584 79.2784 143.5 79C155.5 78.3333 167.5 78.3333 179.5 79C187.905 80.2737 194.238 84.4403 198.5 91.5Z" fill="#2B4E89"/>
<path opacity="0.486" fill-rule="evenodd" clip-rule="evenodd" d="M226.5 80.5C225.167 82.5 223.5 84.1667 221.5 85.5C222.167 82.8333 223.833 81.1667 226.5 80.5Z" fill="#2B4E89"/>
<path opacity="0.537" fill-rule="evenodd" clip-rule="evenodd" d="M323.5 78.5C322.097 79.9312 320.431 81.0978 318.5 82C321.008 83.4502 323.675 84.6168 326.5 85.5C327.298 85.9569 327.631 86.6236 327.5 87.5C322.299 85.1555 316.965 83.3222 311.5 82C315.421 80.7298 319.421 79.5631 323.5 78.5Z" fill="#2B4E89"/>
<path opacity="0.69" fill-rule="evenodd" clip-rule="evenodd" d="M354.5 79.5C357.221 79.9628 359.888 80.6295 362.5 81.5C361.817 83.1765 360.483 83.8432 358.5 83.5C357.63 81.7263 356.297 80.393 354.5 79.5Z" fill="#315087"/>
<path fill-rule="evenodd" clip-rule="evenodd" d="M362.5 81.4997C363.675 81.2807 364.675 81.614 365.5 82.4997C362.435 84.2499 359.102 85.2499 355.5 85.4997C356.29 84.5984 357.29 83.9318 358.5 83.4997C360.483 83.8429 361.817 83.1762 362.5 81.4997Z" fill="#2F4F88"/>
<path fill-rule="evenodd" clip-rule="evenodd" d="M343.5 69.5C345.111 74.7665 348.778 78.0998 354.5 79.5C356.297 80.393 357.63 81.7263 358.5 83.5C357.29 83.9321 356.29 84.5987 355.5 85.5C349.875 86.5934 345.375 89.5934 342 94.5C340.991 96.0249 340.491 97.6916 340.5 99.5C339.849 100.091 339.182 100.757 338.5 101.5C336.722 95.2424 333.055 90.5757 327.5 87.5C327.631 86.6236 327.298 85.9569 326.5 85.5C323.675 84.6168 321.008 83.4502 318.5 82C320.431 81.0978 322.097 79.9312 323.5 78.5C323.833 78.5 324.167 78.5 324.5 78.5C331.152 75.3471 335.985 70.3471 339 63.5C340.242 65.8593 341.742 67.8593 343.5 69.5Z" fill="#2F4F88"/>
<path opacity="0.031" fill-rule="evenodd" clip-rule="evenodd" d="M276.5 84.5C279.833 85.8333 282.167 88.1667 283.5 91.5C280.833 89.5 278.5 87.1667 276.5 84.5Z" fill="#C9D4E6"/>
<path opacity="0.592" fill-rule="evenodd" clip-rule="evenodd" d="M327.5 87.5C333.055 90.5757 336.722 95.2424 338.5 101.5C339.182 100.757 339.849 100.091 340.5 99.5C340.435 101.696 339.768 103.696 338.5 105.5C336.359 98.5471 332.692 92.5471 327.5 87.5Z" fill="#2F4F88"/>
<path opacity="0.012" fill-rule="evenodd" clip-rule="evenodd" d="M219.5 91.5C219.5 96.8333 219.5 102.167 219.5 107.5C215.833 107.5 212.167 107.5 208.5 107.5C208.5 107.167 208.5 106.833 208.5 106.5C211.833 106.5 215.167 106.5 218.5 106.5C218.179 101.305 218.513 96.3054 219.5 91.5Z" fill="#F5F9FE"/>
<path fill-rule="evenodd" clip-rule="evenodd" d="M355.5 85.5C349.217 88.7831 344.217 93.4497 340.5 99.5C340.491 97.6916 340.991 96.0249 342 94.5C345.375 89.5934 349.875 86.5934 355.5 85.5Z" fill="#2F4F88"/>
<path opacity="0.473" fill-rule="evenodd" clip-rule="evenodd" d="M221.5 85.5C221.5 86.8333 221.5 106.167 221.5 107.5C220.833 113.5 221.5 107.5 219.5 107.5C219.5 102.167 219.5 96.8333 219.5 91.5C219.259 89.1016 219.926 87.1016 221.5 85.5Z" fill="#2B4E89"/>
<path opacity="0.941" fill-rule="evenodd" clip-rule="evenodd" d="M198.5 91.5C202.575 95.9756 205.908 100.976 208.5 106.5C207.279 105.972 206.113 105.305 205 104.5C202.25 100.334 200.083 96.0004 198.5 91.5Z" fill="#2B4E89"/>
<path opacity="0.965" fill-rule="evenodd" clip-rule="evenodd" d="M283.5 91.5C287.61 95.9508 290.944 100.951 293.5 106.5C288.551 102.556 285.218 97.5558 283.5 91.5Z" fill="#2B4E89"/>
<path opacity="0.497" fill-rule="evenodd" clip-rule="evenodd" d="M141.5 80.5C138.67 82.8426 136.837 85.8426 136 89.5C135.5 96.4921 135.334 103.492 135.5 110.5C132.395 101.397 132.895 92.3967 137 83.5C138.129 81.8588 139.629 80.8588 141.5 80.5Z" fill="#2B4E89"/>
<path fill-rule="evenodd" clip-rule="evenodd" d="M392.5 111.5C390.003 109.129 387.003 108.129 383.5 108.5C384.49 105.849 385.49 103.183 386.5 100.5C388.221 104.272 390.221 107.939 392.5 111.5Z" fill="#315087"/>
<path fill-rule="evenodd" clip-rule="evenodd" d="M221.5 107.5C219.5 107.5 219.5 107.5 221.5 107.5C243.232 103.389 262.398 108.389 279 122.5C305.512 160.999 331.178 199.999 356 239.5C359.188 243.685 362.688 247.518 366.5 251C371.199 253.681 375.865 256.347 380.5 259C369.505 259.5 358.505 259.667 347.5 259.5C347.392 257.217 346.559 255.217 345 253.5C334.876 242.71 322.376 238.543 307.5 241C300.296 240.315 294.462 237.149 290 231.5C263.047 189.9 235.881 148.567 208.5 107.5C212.167 107.5 215.833 107.5 219.5 107.5C221.5 107.5 219.5 107.5 221.5 107.5Z" fill="white"/>
<path opacity="0.655" fill-rule="evenodd" clip-rule="evenodd" d="M383.5 108.5C382.422 111.908 380.089 113.908 376.5 114.5C378.808 112.529 381.142 110.529 383.5 108.5Z" fill="#315087"/>
<path fill-rule="evenodd" clip-rule="evenodd" d="M383.5 108.5C387.003 108.129 390.003 109.129 392.5 111.5C393.262 113.262 394.596 114.262 396.5 114.5C397.574 115.885 398.907 117.051 400.5 118C399.944 118.383 399.611 118.883 399.5 119.5C396.386 119.555 394.052 120.888 392.5 123.5C392.167 124.5 391.5 125.167 390.5 125.5C388.855 126.479 387.521 127.812 386.5 129.5C384.457 125.457 381.457 122.457 377.5 120.5C376.508 120.672 375.842 120.338 375.5 119.5C374.909 118.849 374.243 118.182 373.5 117.5C374.77 116.712 375.77 115.712 376.5 114.5C380.089 113.908 382.422 111.908 383.5 108.5Z" fill="#315087"/>
<path opacity="0.055" fill-rule="evenodd" clip-rule="evenodd" d="M392.5 111.5C394.404 111.738 395.738 112.738 396.5 114.5C394.596 114.262 393.262 113.262 392.5 111.5Z" fill="#315087"/>
<path fill-rule="evenodd" clip-rule="evenodd" d="M293.5 106.5C296.66 110.148 299.327 114.148 301.5 118.5C299.648 117.911 297.815 117.244 296 116.5C295.339 113.054 294.505 109.721 293.5 106.5Z" fill="#2B4E89"/>
<path opacity="0.89" fill-rule="evenodd" clip-rule="evenodd" d="M376.5 114.5C375.77 115.712 374.77 116.712 373.5 117.5C374.243 118.182 374.909 118.849 375.5 119.5C372.608 119.279 369.941 118.446 367.5 117C370.546 116.261 373.546 115.428 376.5 114.5Z" fill="#315087"/>
<path opacity="0.901" fill-rule="evenodd" clip-rule="evenodd" d="M396.5 114.5C399.054 115.606 401.721 116.439 404.5 117C403.347 118.883 401.681 119.716 399.5 119.5C399.611 118.883 399.944 118.383 400.5 118C398.907 117.051 397.574 115.885 396.5 114.5Z" fill="#315087"/>
<path opacity="0.337" fill-rule="evenodd" clip-rule="evenodd" d="M169.5 115.5C172.069 116.396 174.069 118.062 175.5 120.5C169.537 121.496 163.537 121.829 157.5 121.5C157.833 118.833 158.167 116.167 158.5 113.5C161.518 113.335 164.518 113.502 167.5 114C168.416 114.278 169.082 114.778 169.5 115.5ZM169.5 115.5C166.507 114.865 163.507 114.699 160.5 115C159.74 116.441 159.074 117.941 158.5 119.5C163.467 120.662 168.467 120.829 173.5 120C171.959 118.629 170.625 117.129 169.5 115.5Z" fill="#B4C0DA"/>
<path opacity="0.906" fill-rule="evenodd" clip-rule="evenodd" d="M301.5 118.5C303.326 120.147 304.66 122.147 305.5 124.5C302.196 123.856 300.862 121.856 301.5 118.5Z" fill="#2B4E89"/>
<path opacity="0.035" fill-rule="evenodd" clip-rule="evenodd" d="M399.5 119.5C397.337 121.083 395.004 122.416 392.5 123.5C394.052 120.888 396.386 119.555 399.5 119.5Z" fill="#315087"/>
<path opacity="0.333" fill-rule="evenodd" clip-rule="evenodd" d="M178.5 126.5C171.159 126.334 163.826 126.5 156.5 127C154.909 131.289 153.242 135.456 151.5 139.5C151.5 138.833 151.5 138.167 151.5 137.5C152.535 133.561 153.869 129.728 155.5 126C163.345 125.178 171.011 125.344 178.5 126.5Z" fill="#B6C3D9"/>
<path opacity="0.682" fill-rule="evenodd" clip-rule="evenodd" d="M138.5 113.5C139.649 113.791 140.316 114.624 140.5 116C139.098 122.943 136.765 129.443 133.5 135.5C135.293 128.787 137.293 122.12 139.5 115.5C139.137 114.817 138.804 114.15 138.5 113.5Z" fill="#2B4E89"/>
<path opacity="0.224" fill-rule="evenodd" clip-rule="evenodd" d="M305.5 124.5C306.906 124.973 307.573 125.973 307.5 127.5C306.833 127.167 306.167 126.833 305.5 126.5C305.5 125.833 305.5 125.167 305.5 124.5Z" fill="#2B4E89"/>
<path fill-rule="evenodd" clip-rule="evenodd" d="M377.5 120.5C381.457 122.457 384.457 125.457 386.5 129.5C387.521 127.812 388.855 126.479 390.5 125.5C389.363 128.229 388.03 130.896 386.5 133.5C385.052 131.333 383.885 129 383 126.5C380.96 124.63 379.127 122.63 377.5 120.5Z" fill="#315087"/>
<path fill-rule="evenodd" clip-rule="evenodd" d="M305.5 126.5C306.167 126.833 306.833 127.167 307.5 127.5C311.553 132.892 315.22 138.559 318.5 144.5C317.279 143.972 316.113 143.305 315 142.5C312.475 138.104 309.475 134.104 306 130.5C305.51 129.207 305.343 127.873 305.5 126.5Z" fill="#2B4E89"/>
<path opacity="0.349" fill-rule="evenodd" clip-rule="evenodd" d="M178.5 126.5C181.277 128.951 183.277 131.951 184.5 135.5C181.759 133.025 179.759 130.025 178.5 126.5Z" fill="#B6BFD6"/>
<path opacity="0.137" fill-rule="evenodd" clip-rule="evenodd" d="M184.5 135.5C185.376 135.369 186.043 135.702 186.5 136.5C188.02 138.662 189.02 140.995 189.5 143.5C176.5 143.5 163.5 143.5 150.5 143.5C150.232 141.901 150.566 140.568 151.5 139.5C151.5 140.5 151.5 141.5 151.5 142.5C163.838 142.667 176.171 142.5 188.5 142C186.768 140.028 185.435 137.861 184.5 135.5Z" fill="#CFD7E7"/>
<path opacity="0.827" fill-rule="evenodd" clip-rule="evenodd" d="M151.5 137.5C151.5 138.167 151.5 138.833 151.5 139.5C150.566 140.568 150.232 141.901 150.5 143.5C163.5 143.5 176.5 143.5 189.5 143.5C176.344 144.496 163.01 144.829 149.5 144.5C149.338 142.473 149.505 140.473 150 138.5C150.383 137.944 150.883 137.611 151.5 137.5Z" fill="#5F779D"/>
<path opacity="0.486" fill-rule="evenodd" clip-rule="evenodd" d="M197.5 159.5C196.94 155.217 194.94 151.717 191.5 149C177.5 148.333 163.5 148.333 149.5 149C148.391 150.876 147.391 152.709 146.5 154.5C146.674 152.139 147.007 149.806 147.5 147.5C162.837 147.333 178.17 147.5 193.5 148C195 150.167 196.5 152.333 198 154.5C198.78 156.387 198.613 158.054 197.5 159.5Z" fill="#A2AFCA"/>
<path opacity="0.271" fill-rule="evenodd" clip-rule="evenodd" d="M318.5 144.5C321.241 146.975 323.241 149.975 324.5 153.5C323.5 152.833 322.5 152.167 321.5 151.5C321.25 150.078 320.417 149.078 319 148.5C318.51 147.207 318.343 145.873 318.5 144.5Z" fill="#2B4E89"/>
<path opacity="0.396" fill-rule="evenodd" clip-rule="evenodd" d="M146.5 154.5C145.703 158.223 144.703 161.89 143.5 165.5C142.903 165.265 142.57 164.765 142.5 164C143.32 160.461 144.654 157.294 146.5 154.5Z" fill="#AEB8D1"/>
<path fill-rule="evenodd" clip-rule="evenodd" d="M321.5 151.5C322.5 152.167 323.5 152.833 324.5 153.5C327.221 156.894 329.554 160.561 331.5 164.5C328.12 162.057 324.954 159.391 322 156.5C321.506 154.866 321.34 153.199 321.5 151.5Z" fill="#2B4E89"/>
<path opacity="0.616" fill-rule="evenodd" clip-rule="evenodd" d="M133.5 135.5C127.513 155.963 121.013 176.296 114 196.5C112.601 197.227 111.101 197.727 109.5 198C111.155 199.444 111.822 201.278 111.5 203.5C108.633 203.631 106.967 202.297 106.5 199.5C107.794 200.29 108.961 201.29 110 202.5C109.973 200.583 109.139 198.916 107.5 197.5C109.637 196.92 111.47 195.92 113 194.5C119.766 174.698 126.599 155.031 133.5 135.5Z" fill="#2B4E89"/>
<path opacity="0.616" fill-rule="evenodd" clip-rule="evenodd" d="M197.5 159.5C197.5 160.5 197.5 161.5 197.5 162.5C196.178 162.67 195.011 162.337 194 161.5C193.878 163.437 193.045 164.77 191.5 165.5C191.643 163.738 191.309 162.071 190.5 160.5C192.611 159.152 194.445 159.485 196 161.5C196.278 160.584 196.778 159.918 197.5 159.5Z" fill="#A6BCDB"/>
<path opacity="0.349" fill-rule="evenodd" clip-rule="evenodd" d="M331.5 164.5C332.906 164.973 333.573 165.973 333.5 167.5C332.094 167.027 331.427 166.027 331.5 164.5Z" fill="#2B4E89"/>
<path opacity="0.059" fill-rule="evenodd" clip-rule="evenodd" d="M140.5 170.5C142.924 170.192 145.257 170.526 147.5 171.5C147.376 172.107 147.043 172.44 146.5 172.5C144.611 171.258 142.611 171.258 140.5 172.5C140.5 171.833 140.5 171.167 140.5 170.5Z" fill="#D2E3F7"/>
<path fill-rule="evenodd" clip-rule="evenodd" d="M333.5 167.5C335.95 169.629 337.617 172.296 338.5 175.5C336.376 174.969 334.876 173.635 334 171.5C333.51 170.207 333.343 168.873 333.5 167.5Z" fill="#2B4E89"/>
<path opacity="0.039" fill-rule="evenodd" clip-rule="evenodd" d="M193.5 173.5C193.34 175.153 192.674 176.486 191.5 177.5C191.833 175.5 192.167 173.5 192.5 171.5C179.5 171.5 166.5 171.5 153.5 171.5C152.911 175.971 153.577 179.971 155.5 183.5C155.5 184.167 155.5 184.833 155.5 185.5C154.5 185.5 153.5 185.5 152.5 185.5C151.746 180.537 151.413 175.537 151.5 170.5C165.5 170.5 179.5 170.5 193.5 170.5C193.5 171.5 193.5 172.5 193.5 173.5Z" fill="#CFDCF2"/>
<path opacity="0.596" fill-rule="evenodd" clip-rule="evenodd" d="M140.5 172.5C139.71 176.206 138.71 179.872 137.5 183.5C137.752 185.073 138.418 186.406 139.5 187.5C137.11 187.315 136.11 185.982 136.5 183.5C137.02 180.088 137.853 176.755 139 173.5C139.383 172.944 139.883 172.611 140.5 172.5Z" fill="#ACB8D2"/>
<path fill-rule="evenodd" clip-rule="evenodd" d="M375.5 168.5C379.691 172.552 382.024 177.552 382.5 183.5C380.877 179.6 378.711 175.933 376 172.5C375.51 171.207 375.343 169.873 375.5 168.5Z" fill="#91A9D1"/>
<path opacity="0.655" fill-rule="evenodd" clip-rule="evenodd" d="M164.5 182.5C162.203 180.706 160.037 178.706 158 176.5C158.03 179.361 157.197 181.695 155.5 183.5C156.773 181.383 156.773 179.216 155.5 177C155.613 175.72 156.28 174.887 157.5 174.5C160.595 176.589 162.929 179.256 164.5 182.5Z" fill="#C4D2EA"/>
<path opacity="0.102" fill-rule="evenodd" clip-rule="evenodd" d="M375.5 168.5C374.85 168.196 374.183 167.863 373.5 167.5C372.505 172.792 372.172 178.125 372.5 183.5C371.348 184.625 370.348 184.625 369.5 183.5C370.117 183.389 370.617 183.056 371 182.5C371.499 177.177 371.666 171.844 371.5 166.5C373.483 166.157 374.817 166.824 375.5 168.5Z" fill="#D9E2F7"/>
<path opacity="0.537" fill-rule="evenodd" clip-rule="evenodd" d="M349.5 176.5C349.074 180.427 348.074 184.093 346.5 187.5C345.094 187.027 344.427 186.027 344.5 184.5C345.117 184.611 345.617 184.944 346 185.5C346.9 182.282 348.067 179.282 349.5 176.5Z" fill="#C2D2EA"/>
<path fill-rule="evenodd" clip-rule="evenodd" d="M140.5 170.5C158.326 169.503 176.326 169.17 194.5 169.5C194.768 171.099 194.434 172.432 193.5 173.5C193.5 172.5 193.5 171.5 193.5 170.5C179.5 170.5 165.5 170.5 151.5 170.5C151.413 175.537 151.746 180.537 152.5 185.5C153.5 185.5 154.5 185.5 155.5 185.5C156.338 185.842 156.672 186.508 156.5 187.5C152.167 187.5 147.833 187.5 143.5 187.5C143.964 182.379 144.964 177.379 146.5 172.5C147.043 172.44 147.376 172.107 147.5 171.5C145.257 170.526 142.924 170.192 140.5 170.5Z" fill="#6185BD"/>
<path fill-rule="evenodd" clip-rule="evenodd" d="M338.5 175.5C341.241 177.975 343.241 180.975 344.5 184.5C342.641 183.406 340.641 182.573 338.5 182C339.605 179.88 339.605 177.713 338.5 175.5Z" fill="#2B4E89"/>
<path opacity="0.82" fill-rule="evenodd" clip-rule="evenodd" d="M369.5 183.5C368.837 185.042 368.17 186.709 367.5 188.5C366.23 184.484 366.23 180.484 367.5 176.5C367.333 176.167 367.167 175.833 367 175.5C366.292 176.381 365.458 177.047 364.5 177.5C364.694 175.088 366.027 174.088 368.5 174.5C368.682 176.591 368.348 178.591 367.5 180.5C368.193 181.518 368.859 182.518 369.5 183.5Z" fill="#ADC5E4"/>
<path fill-rule="evenodd" clip-rule="evenodd" d="M178.5 187.5C175.73 185.634 174.23 182.968 174 179.5C172.97 181.588 172.137 183.755 171.5 186C171.164 187.03 170.497 187.53 169.5 187.5C170.702 183.286 171.369 178.952 171.5 174.5C172.822 174.33 173.989 174.663 175 175.5C176.477 179.43 177.644 183.43 178.5 187.5Z" fill="#A2B6D9"/>
<path fill-rule="evenodd" clip-rule="evenodd" d="M164.5 182.5C166.063 183.945 167.396 185.611 168.5 187.5C166.833 187.5 165.167 187.5 163.5 187.5C163.908 184.401 162.741 182.067 160 180.5C159.503 182.81 159.337 185.143 159.5 187.5C158.5 187.5 157.5 187.5 156.5 187.5C156.672 186.508 156.338 185.842 155.5 185.5C155.5 184.833 155.5 184.167 155.5 183.5C157.197 181.695 158.03 179.361 158 176.5C160.037 178.706 162.203 180.706 164.5 182.5Z" fill="#87A1D0"/>
<path opacity="0.902" fill-rule="evenodd" clip-rule="evenodd" d="M146.5 172.5C144.964 177.379 143.964 182.379 143.5 187.5C142.5 187.5 141.5 187.5 140.5 187.5C141.659 183.535 142.826 179.535 144 175.5C144.377 174.058 145.21 173.058 146.5 172.5Z" fill="#A7BBE0"/>
<path opacity="0.325" fill-rule="evenodd" clip-rule="evenodd" d="M191.5 177.5C192.092 180.631 191.092 182.964 188.5 184.5C187.078 185.925 185.411 186.925 183.5 187.5C186.197 184.142 188.864 180.809 191.5 177.5Z" fill="#B1C3DD"/>
<path fill-rule="evenodd" clip-rule="evenodd" d="M140.5 170.5C140.5 171.167 140.5 171.833 140.5 172.5C139.883 172.611 139.383 172.944 139 173.5C137.853 176.755 137.02 180.088 136.5 183.5C136.11 185.982 137.11 187.315 139.5 187.5C139.833 187.5 140.167 187.5 140.5 187.5C141.5 187.5 142.5 187.5 143.5 187.5C147.833 187.5 152.167 187.5 156.5 187.5C157.5 187.5 158.5 187.5 159.5 187.5C159.337 185.143 159.503 182.81 160 180.5C162.741 182.067 163.908 184.401 163.5 187.5C165.167 187.5 166.833 187.5 168.5 187.5C168.833 187.5 169.167 187.5 169.5 187.5C170.497 187.53 171.164 187.03 171.5 186C172.137 183.755 172.97 181.588 174 179.5C174.23 182.968 175.73 185.634 178.5 187.5C180.167 187.5 181.833 187.5 183.5 187.5C185.411 186.925 187.078 185.925 188.5 184.5C188.313 186.564 187.813 188.564 187 190.5C186.5 190 186 189.5 185.5 189C168.503 188.5 151.503 188.333 134.5 188.5C135.329 183.179 136.162 177.846 137 172.5C138.113 171.695 139.279 171.028 140.5 170.5Z" fill="#4B6CA3"/>
<path fill-rule="evenodd" clip-rule="evenodd" d="M375.5 168.5C375.343 169.873 375.51 171.207 376 172.5C378.711 175.933 380.877 179.6 382.5 183.5C383.022 185.219 384.022 186.552 385.5 187.5C387.833 185.833 389.833 183.833 391.5 181.5C391.973 180.094 392.973 179.427 394.5 179.5C395.675 179.281 396.675 179.614 397.5 180.5C394.888 185.495 393.555 190.828 393.5 196.5C393.328 197.492 393.662 198.158 394.5 198.5C394.902 195.523 395.902 192.857 397.5 190.5C397.842 191.338 398.508 191.672 399.5 191.5C401.364 190.022 402.697 188.022 403.5 185.5C404.116 190.2 404.45 194.866 404.5 199.5C408.306 197.503 412.306 196.67 416.5 197C415.619 197.708 414.953 198.542 414.5 199.5C414.167 200.5 413.5 201.167 412.5 201.5C410.078 202.992 409.412 204.992 410.5 207.5C412.521 206.145 414.188 204.479 415.5 202.5C416.585 200.413 418.251 199.08 420.5 198.5C421.376 198.369 422.043 198.702 422.5 199.5C420.744 203.288 420.078 207.288 420.5 211.5C424.1 210.68 426.1 208.347 426.5 204.5C428.335 201.158 429.502 197.491 430 193.5C430.697 195.584 431.864 197.251 433.5 198.5C433.5 200.5 433.5 202.5 433.5 204.5C437.472 203.051 440.806 200.551 443.5 197C444.816 196.472 445.483 196.972 445.5 198.5C443.768 201.467 442.435 204.634 441.5 208C442.094 208.464 442.761 208.631 443.5 208.5C444.552 208.649 445.552 208.483 446.5 208C447.726 206.365 449.059 204.865 450.5 203.5C451.429 204.689 451.762 206.022 451.5 207.5C451.784 209.415 451.451 211.081 450.5 212.5C448.384 214.088 448.051 216.088 449.5 218.5C452.962 216.609 456.628 216.109 460.5 217C455.104 220.216 451.438 224.716 449.5 230.5C452.972 230.874 455.972 229.874 458.5 227.5C459.484 230.428 459.817 233.428 459.5 236.5C457.838 238.224 456.838 240.391 456.5 243C457.028 245.862 457.695 248.696 458.5 251.5C461.926 247.462 463.259 242.795 462.5 237.5C463.222 237.082 463.722 236.416 464 235.5C464.499 239.486 464.666 243.486 464.5 247.5C464.5 248.167 464.5 248.833 464.5 249.5C463.883 249.611 463.383 249.944 463 250.5C462.151 253.521 461.317 256.521 460.5 259.5C457.21 262.756 455.543 266.756 455.5 271.5C454.691 269.708 454.191 267.708 454 265.5C452.67 264.418 451.17 263.751 449.5 263.5C447.164 265.279 444.33 266.279 441 266.5C439.347 266.18 438.347 265.18 438 263.5C436.414 266.257 434.914 268.924 433.5 271.5C433.805 263.919 431.972 256.919 428 250.5C417.368 242.142 405.202 238.975 391.5 241C387.271 239.885 383.271 238.219 379.5 236C367.603 220.348 356.603 204.182 346.5 187.5C348.074 184.093 349.074 180.427 349.5 176.5C350.15 176.196 350.817 175.863 351.5 175.5C352.328 180.132 352.828 184.798 353 189.5C355.178 192.468 356.344 192.135 356.5 188.5C358.476 185.108 361.142 182.108 364.5 179.5C365.325 183.122 365.825 186.789 366 190.5C367.011 191.337 368.178 191.67 369.5 191.5C369.493 188.355 370.493 185.689 372.5 183.5C372.172 178.125 372.505 172.792 373.5 167.5C374.183 167.863 374.85 168.196 375.5 168.5Z" fill="#5983C2"/>
<path opacity="0.459" fill-rule="evenodd" clip-rule="evenodd" d="M391.5 181.5C389.833 183.833 387.833 185.833 385.5 187.5C386.5 184.5 388.5 182.5 391.5 181.5Z" fill="#C8D5EC"/>
<path fill-rule="evenodd" clip-rule="evenodd" d="M356.5 188.5C356.344 192.135 355.178 192.468 353 189.5C352.828 184.798 352.328 180.132 351.5 175.5C350.817 175.863 350.15 176.196 349.5 176.5C349.684 173.827 350.851 173.16 353 174.5C353.338 179.547 354.005 184.547 355 189.5C355.383 188.944 355.883 188.611 356.5 188.5Z" fill="#A3B9DD"/>
<path fill-rule="evenodd" clip-rule="evenodd" d="M433.5 271.5C434.914 268.924 436.414 266.257 438 263.5C438.347 265.18 439.347 266.18 441 266.5C444.33 266.279 447.164 265.279 449.5 263.5C451.17 263.751 452.67 264.418 454 265.5C454.191 267.708 454.691 269.708 455.5 271.5C456.5 271.5 457.5 271.5 458.5 271.5C466.361 275.101 474.028 279.268 481.5 284C483.037 285.11 483.703 286.61 483.5 288.5C484.959 288.433 486.292 288.766 487.5 289.5C488.683 292.703 490.016 295.87 491.5 299C491.167 299.5 490.833 300 490.5 300.5C488.556 299.811 486.556 299.311 484.5 299C483.773 297.601 483.273 296.101 483 294.5C332.758 294.826 182.592 295.826 32.5003 297.5C30.1208 296.433 29.1208 297.433 29.5003 300.5C180.167 300.5 330.833 300.5 481.5 300.5C481.5 300.833 481.5 301.167 481.5 301.5C328.5 301.5 175.5 301.5 22.5003 301.5C22.4016 298.763 22.735 296.096 23.5003 293.5C27.8596 289.472 32.193 285.472 36.5003 281.5C46.8122 277.012 57.1455 272.512 67.5003 268C68.7184 265.35 68.3851 262.85 66.5003 260.5C66.5777 259.25 67.2443 258.417 68.5003 258C66.8261 256.494 65.8261 254.661 65.5003 252.5C66.5003 252.5 67.5003 252.5 68.5003 252.5C68.1204 254.698 68.7871 256.365 70.5003 257.5C71.167 257.833 71.8336 258.167 72.5003 258.5C72.8591 260.371 73.8591 261.871 75.5003 263C76.4838 263.591 77.1504 263.257 77.5003 262C76.7744 259.366 75.441 257.199 73.5003 255.5C73.4165 252.673 72.7499 250.006 71.5003 247.5C69.8193 244.418 69.1527 241.085 69.5003 237.5C70.8336 237.5 72.167 237.5 73.5003 237.5C74.7692 235.175 76.1025 232.841 77.5003 230.5C77.4108 227.463 76.4108 224.797 74.5003 222.5C75.3253 221.614 76.3253 221.281 77.5003 221.5C77.5003 218.167 77.5003 214.833 77.5003 211.5C80.2472 211.813 82.9138 211.48 85.5003 210.5C86.1543 208.885 86.6543 207.218 87.0003 205.5C88.8543 207.851 90.3543 207.517 91.5003 204.5C92.1555 200.188 93.6555 196.188 96.0003 192.5C96.4218 196.872 97.0884 201.205 98.0003 205.5C98.3829 206.056 98.8829 206.389 99.5003 206.5C99.676 210.265 101.676 212.265 105.5 212.5C105.956 208.398 105.289 204.565 103.5 201C103.836 199.97 104.503 199.47 105.5 199.5C105.833 199.5 106.167 199.5 106.5 199.5C106.967 202.297 108.633 203.631 111.5 203.5C103.592 226.055 95.7587 248.722 88.0003 271.5C87.5068 273.134 87.3401 274.801 87.5003 276.5C93.8336 276.5 100.167 276.5 106.5 276.5C107.256 270.399 108.923 264.565 111.5 259C129.164 258.5 146.83 258.333 164.5 258.5C163.642 264.738 161.976 270.738 159.5 276.5C165.833 276.5 172.167 276.5 178.5 276.5C182.471 261.83 186.638 247.164 191 232.5C197.797 214.775 203.797 196.775 209 178.5C210.667 175.833 212.333 175.833 214 178.5C217.62 186.77 222.453 194.103 228.5 200.5C240.309 218.767 252.142 237.1 264 255.5C270.73 262.908 278.563 268.741 287.5 273C306.02 276.563 324.687 277.397 343.5 275.5C347.501 271.459 352.501 269.792 358.5 270.5C367.359 270.973 376.025 272.806 384.5 276C398.833 276.667 413.167 276.667 427.5 276C429.968 275.021 431.968 273.521 433.5 271.5ZM73.5003 255.5C73.8336 256.833 74.167 258.167 74.5003 259.5C73.8336 259.167 73.167 258.833 72.5003 258.5C72.263 257.209 72.5963 256.209 73.5003 255.5Z" fill="#5782C2"/>
<path fill-rule="evenodd" clip-rule="evenodd" d="M369.5 183.5C370.348 184.625 371.348 184.625 372.5 183.5C370.493 185.689 369.493 188.355 369.5 191.5C368.178 191.67 367.011 191.337 366 190.5C365.825 186.789 365.325 183.122 364.5 179.5C361.142 182.108 358.476 185.108 356.5 188.5C357.627 183.708 360.293 180.041 364.5 177.5C365.458 177.047 366.292 176.381 367 175.5C367.167 175.833 367.333 176.167 367.5 176.5C366.23 180.484 366.23 184.484 367.5 188.5C368.17 186.709 368.837 185.042 369.5 183.5Z" fill="#7494C4"/>
<path fill-rule="evenodd" clip-rule="evenodd" d="M178.5 192.5C181.005 191.503 183.672 191.503 186.5 192.5C185.423 197.995 183.756 203.329 181.5 208.5C163.846 209.5 146.179 209.833 128.5 209.5C129.428 203.556 131.095 197.889 133.5 192.5C148.167 192.5 162.833 192.5 177.5 192.5C178.365 204.314 179.698 204.314 181.5 192.5C180.5 192.5 179.5 192.5 178.5 192.5Z" fill="#5782C2"/>
<path opacity="0.175" fill-rule="evenodd" clip-rule="evenodd" d="M397.5 190.5C395.902 192.857 394.902 195.523 394.5 198.5C394.672 197.508 394.338 196.842 393.5 196.5C393.555 190.828 394.888 185.495 397.5 180.5C396.675 179.614 395.675 179.281 394.5 179.5C395.78 178.069 397.447 177.402 399.5 177.5C398.603 181.134 397.27 184.634 395.5 188C396.056 189.011 396.722 189.844 397.5 190.5Z" fill="#C6D9EF"/>
<path opacity="0.953" fill-rule="evenodd" clip-rule="evenodd" d="M433.5 198.5C431.864 197.251 430.697 195.584 430 193.5C429.502 197.491 428.335 201.158 426.5 204.5C427.229 199.87 427.563 195.203 427.5 190.5C428.822 190.33 429.989 190.663 431 191.5C432.136 193.743 432.97 196.076 433.5 198.5Z" fill="#A0B4D5"/>
<path opacity="0.718" fill-rule="evenodd" clip-rule="evenodd" d="M81.5 196.5C80.7611 196.369 80.0944 196.536 79.5 197C80.5822 198.33 81.2488 199.83 81.5 201.5C79.8518 199.571 78.1851 197.571 76.5 195.5C78.5819 194.106 80.2486 194.439 81.5 196.5Z" fill="#B1C1DC"/>
<path opacity="0.427" fill-rule="evenodd" clip-rule="evenodd" d="M99.5 206.5C98.8826 206.389 98.3826 206.056 98 205.5C97.0881 201.205 96.4215 196.872 96 192.5C93.6552 196.188 92.1552 200.188 91.5 204.5C87.327 203.005 83.9937 200.338 81.5 196.5C84.7311 198.22 87.5644 200.553 90 203.5C90.6596 198.516 92.6596 194.183 96 190.5C97.3267 195.734 98.4933 201.067 99.5 206.5Z" fill="#BACBE9"/>
<path opacity="0.584" fill-rule="evenodd" clip-rule="evenodd" d="M414.5 199.5C414.953 198.542 415.619 197.708 416.5 197C412.306 196.67 408.306 197.503 404.5 199.5C404.45 194.866 404.116 190.2 403.5 185.5C402.697 188.022 401.364 190.022 399.5 191.5C400.274 188.486 401.607 185.819 403.5 183.5C404.086 183.709 404.586 184.043 405 184.5C405.796 188.755 405.629 192.921 404.5 197C408.71 196.091 413.044 195.591 417.5 195.5C417.912 197.973 416.912 199.306 414.5 199.5Z" fill="#B4C7E2"/>
<path opacity="0.416" fill-rule="evenodd" clip-rule="evenodd" d="M420.5 198.5C421.209 197.596 422.209 197.263 423.5 197.5C421.925 201.693 421.425 206.026 422 210.5C423.363 208.316 424.863 206.316 426.5 204.5C426.1 208.347 424.1 210.68 420.5 211.5C420.078 207.288 420.744 203.288 422.5 199.5C422.043 198.702 421.376 198.369 420.5 198.5Z" fill="#C2D2EA"/>
<path opacity="0.671" fill-rule="evenodd" clip-rule="evenodd" d="M445.5 198.5C445.483 196.972 444.816 196.472 443.5 197C440.806 200.551 437.472 203.051 433.5 204.5C433.5 202.5 433.5 200.5 433.5 198.5C434.302 199.952 434.802 201.618 435 203.5C438.445 199.217 442.612 195.883 447.5 193.5C448.823 195.854 448.157 197.521 445.5 198.5Z" fill="#AFC3DF"/>
<path fill-rule="evenodd" clip-rule="evenodd" d="M177.5 192.5C177.833 192.5 178.167 192.5 178.5 192.5C179.5 192.5 180.5 192.5 181.5 192.5C179.698 204.314 178.365 204.314 177.5 192.5Z" fill="#96B1DE"/>
<path fill-rule="evenodd" clip-rule="evenodd" d="M81.4995 196.5C83.9932 200.338 87.3265 203.005 91.4995 204.5C90.3535 207.517 88.8535 207.851 86.9995 205.5C86.6535 207.218 86.1535 208.885 85.4995 210.5C82.913 211.48 80.2464 211.813 77.4995 211.5C77.4995 214.833 77.4995 218.167 77.4995 221.5C76.3245 221.281 75.3245 221.614 74.4995 222.5C76.41 224.797 77.41 227.463 77.4995 230.5C76.1017 232.841 74.7684 235.175 73.4995 237.5C72.1662 237.5 70.8328 237.5 69.4995 237.5C69.1519 241.085 69.8185 244.418 71.4995 247.5C70.4133 247.62 69.7467 248.287 69.4995 249.5C70.2687 252.115 70.602 254.781 70.4995 257.5C68.7863 256.365 68.1196 254.698 68.4995 252.5C67.4995 252.5 66.4995 252.5 65.4995 252.5C65.8253 254.661 66.8253 256.494 68.4995 258C67.2435 258.417 66.5769 259.25 66.4995 260.5C64.2896 255.854 62.2896 251.187 60.4995 246.5C60.4995 246.167 60.4995 245.833 60.4995 245.5C60.3337 240.821 60.5003 236.155 60.9995 231.5C61.5746 236.466 62.7413 241.133 64.4995 245.5C64.4995 246.833 64.4995 248.167 64.4995 249.5C65.4995 249.5 66.4995 249.5 67.4995 249.5C69.0619 244.443 68.3952 239.776 65.4995 235.5C65.1041 231.815 64.9374 228.148 64.9995 224.5C67.1662 226.667 69.3328 228.833 71.4995 231C73.1336 231.494 74.8003 231.66 76.4995 231.5C75.3375 226.337 72.3375 222.671 67.4995 220.5C65.9726 220.573 64.9726 219.906 64.4995 218.5C64.3888 217.883 64.0555 217.383 63.4995 217C67.664 216.187 71.664 216.687 75.4995 218.5C75.8328 217.5 76.1662 216.5 76.4995 215.5C76.6593 213.645 75.9926 212.312 74.4995 211.5C74.3354 208.813 74.5021 206.146 74.9995 203.5C75.7078 204.381 76.5411 205.047 77.4995 205.5C78.4441 208.987 80.7774 210.32 84.4995 209.5C84.9814 206.169 83.9814 203.503 81.4995 201.5C81.2483 199.83 80.5817 198.33 79.4995 197C80.0939 196.536 80.7606 196.369 81.4995 196.5Z" fill="#6589C0"/>
<path opacity="0.533" fill-rule="evenodd" clip-rule="evenodd" d="M451.5 207.5C451.762 206.022 451.429 204.689 450.5 203.5C449.059 204.865 447.726 206.365 446.5 208C445.552 208.483 444.552 208.649 443.5 208.5C446.046 206.436 448.379 204.103 450.5 201.5C451.946 202.171 452.612 203.338 452.5 205C452.472 206.07 452.139 206.903 451.5 207.5Z" fill="#C4D2E6"/>
<path opacity="0.094" fill-rule="evenodd" clip-rule="evenodd" d="M412.5 201.5C412.369 202.239 412.536 202.906 413 203.5C413.671 202.748 414.504 202.414 415.5 202.5C414.188 204.479 412.521 206.145 410.5 207.5C409.412 204.992 410.078 202.992 412.5 201.5Z" fill="#C5D8F1"/>
<path opacity="0.439" fill-rule="evenodd" clip-rule="evenodd" d="M77.4997 205.5C76.5413 205.047 75.708 204.381 74.9997 203.5C74.5023 206.146 74.3356 208.813 74.4997 211.5C73.523 208.713 73.1897 205.713 73.4997 202.5C75.9723 202.088 77.3056 203.088 77.4997 205.5Z" fill="#BECFEA"/>
<path opacity="0.361" fill-rule="evenodd" clip-rule="evenodd" d="M81.5 201.5C83.9819 203.503 84.9819 206.169 84.5 209.5C80.7779 210.32 78.4446 208.987 77.5 205.5C78.6266 206.122 79.6266 206.955 80.5 208C81.5 208.667 82.5 208.667 83.5 208C82.6028 205.913 81.9361 203.746 81.5 201.5Z" fill="#B7CCED"/>
<path opacity="0.561" fill-rule="evenodd" clip-rule="evenodd" d="M105.5 199.5C104.503 199.47 103.836 199.97 103.5 201C105.289 204.565 105.956 208.398 105.5 212.5C101.676 212.265 99.6757 210.265 99.5 206.5C100.429 207.936 101.595 209.269 103 210.5C103.575 206.026 103.075 201.693 101.5 197.5C103.38 197.229 104.713 197.896 105.5 199.5Z" fill="#A9BDDF"/>
<path opacity="0.741" fill-rule="evenodd" clip-rule="evenodd" d="M74.4998 211.5C75.9929 212.312 76.6596 213.645 76.4998 215.5C76.1665 216.5 75.8331 217.5 75.4998 218.5C71.6643 216.687 67.6643 216.187 63.4998 217C64.0558 217.383 64.3891 217.883 64.4998 218.5C61.9681 218.171 60.9681 217.005 61.4998 215C65.8167 214.379 69.9834 214.879 73.9998 216.5C74.4933 214.866 74.66 213.199 74.4998 211.5Z" fill="#A8BBDC"/>
<path fill-rule="evenodd" clip-rule="evenodd" d="M126.5 214.5C144.167 214.5 161.833 214.5 179.5 214.5C178.093 220.295 176.426 225.962 174.5 231.5C156.833 231.5 139.167 231.5 121.5 231.5C122.039 225.449 123.706 219.783 126.5 214.5Z" fill="#5682C2"/>
<path opacity="0.098" fill-rule="evenodd" clip-rule="evenodd" d="M450.5 212.5C450.343 213.873 450.51 215.207 451 216.5C455.342 214.416 459.842 214.083 464.5 215.5C459.048 219.118 454.381 223.618 450.5 229C452.289 229.52 453.956 229.187 455.5 228C456.976 225.357 458.976 223.19 461.5 221.5C462.587 226.794 461.92 231.794 459.5 236.5C459.817 233.428 459.484 230.428 458.5 227.5C455.972 229.874 452.972 230.874 449.5 230.5C451.438 224.716 455.104 220.216 460.5 217C456.628 216.109 452.962 216.609 449.5 218.5C448.051 216.088 448.384 214.088 450.5 212.5Z" fill="#B4C6E2"/>
<path opacity="0.62" fill-rule="evenodd" clip-rule="evenodd" d="M67.5 220.5C72.338 222.671 75.338 226.337 76.5 231.5C74.8008 231.66 73.1341 231.494 71.5 231C69.3333 228.833 67.1667 226.667 65 224.5C64.9379 228.148 65.1046 231.815 65.5 235.5C63.7402 231.453 62.7402 227.12 62.5 222.5C63.552 222.351 64.552 222.517 65.5 223C76.574 233.031 77.2407 232.197 67.5 220.5Z" fill="#C6D6ED"/>
<path opacity="0.473" fill-rule="evenodd" clip-rule="evenodd" d="M64.4997 245.5C62.7415 241.133 61.5748 236.466 60.9997 231.5C60.5005 236.155 60.3339 240.821 60.4997 245.5C59.5125 240.695 59.1792 235.695 59.4997 230.5C60.4997 230.5 61.4997 230.5 62.4997 230.5C63.0579 235.516 63.7246 240.516 64.4997 245.5Z" fill="#BFCEE8"/>
<path opacity="0.802" fill-rule="evenodd" clip-rule="evenodd" d="M464.5 247.5C464.666 243.486 464.499 239.486 464 235.5C463.722 236.416 463.222 237.082 462.5 237.5C462.104 234.518 462.771 231.851 464.5 229.5C465.086 229.709 465.586 230.043 466 230.5C466.547 236.384 466.047 242.051 464.5 247.5Z" fill="#B9C7E1"/>
<path fill-rule="evenodd" clip-rule="evenodd" d="M119.5 236.5C137.167 236.5 154.833 236.5 172.5 236.5C170.236 242.038 168.236 247.705 166.5 253.5C148.846 254.5 131.179 254.833 113.5 254.5C113.34 252.801 113.506 251.134 114 249.5C116.286 245.352 118.119 241.018 119.5 236.5Z" fill="#5581C1"/>
<path opacity="0.259" fill-rule="evenodd" clip-rule="evenodd" d="M65.5 235.5C68.3957 239.776 69.0624 244.443 67.5 249.5C66.5 249.5 65.5 249.5 64.5 249.5C64.5 248.167 64.5 246.833 64.5 245.5C65.2216 245.918 65.7216 246.584 66 247.5C66.2734 245.899 66.7734 244.399 67.5 243C66.1328 240.699 65.4661 238.199 65.5 235.5Z" fill="#D1DDF3"/>
<path opacity="0.62" fill-rule="evenodd" clip-rule="evenodd" d="M459.5 236.5C459.335 238.827 458.669 240.993 457.5 243C458.227 244.399 458.727 245.899 459 247.5C460.483 244.197 461.65 240.864 462.5 237.5C463.259 242.795 461.926 247.462 458.5 251.5C457.695 248.696 457.028 245.862 456.5 243C456.838 240.391 457.838 238.224 459.5 236.5Z" fill="#B8CBE8"/>
<path opacity="0.388" fill-rule="evenodd" clip-rule="evenodd" d="M71.5 247.5C72.7496 250.006 73.4162 252.673 73.5 255.5C72.596 256.209 72.2627 257.209 72.5 258.5C71.8333 258.167 71.1667 257.833 70.5 257.5C70.6025 254.781 70.2692 252.115 69.5 249.5C69.7472 248.287 70.4138 247.62 71.5 247.5Z" fill="#ABC2E8"/>
<path opacity="0.447" fill-rule="evenodd" clip-rule="evenodd" d="M464.5 249.5C464.128 253.297 462.794 256.63 460.5 259.5C461.317 256.521 462.151 253.521 463 250.5C463.383 249.944 463.883 249.611 464.5 249.5Z" fill="#B6C7E5"/>
<path opacity="0.333" fill-rule="evenodd" clip-rule="evenodd" d="M449.5 263.5C448.883 263.611 448.383 263.944 448 264.5C447.333 263.167 447.333 261.833 448 260.5C450.263 256.535 452.43 252.535 454.5 248.5C455.762 254.441 454.096 259.441 449.5 263.5Z" fill="#B9D0ED"/>
<path opacity="0.529" fill-rule="evenodd" clip-rule="evenodd" d="M73.5 255.5C75.4407 257.199 76.7741 259.366 77.5 262C77.1501 263.257 76.4835 263.591 75.5 263C73.8588 261.871 72.8588 260.371 72.5 258.5C73.1667 258.833 73.8333 259.167 74.5 259.5C74.1667 258.167 73.8333 256.833 73.5 255.5Z" fill="#BACFEE"/>
<path opacity="0.439" fill-rule="evenodd" clip-rule="evenodd" d="M460.5 259.5C459.18 262.812 457.846 266.145 456.5 269.5C457.243 270.182 457.909 270.849 458.5 271.5C457.5 271.5 456.5 271.5 455.5 271.5C455.543 266.756 457.21 262.756 460.5 259.5Z" fill="#B7C9E6"/>
<path opacity="0.482" fill-rule="evenodd" clip-rule="evenodd" d="M60.5 246.5C62.2901 251.187 64.2901 255.854 66.5 260.5C68.3848 262.85 68.7181 265.35 67.5 268C57.1452 272.512 46.8119 277.012 36.5 281.5C46.2459 275.294 56.5792 270.127 67.5 266C63.4779 260.1 61.1445 253.6 60.5 246.5Z" fill="#B2C6E5"/>
<path opacity="0.329" fill-rule="evenodd" clip-rule="evenodd" d="M458.5 271.5C468.805 274.486 478.139 279.319 486.5 286C488.464 287.451 489.797 289.284 490.5 291.5C489.5 290.833 488.5 290.167 487.5 289.5C486.292 288.766 484.959 288.433 483.5 288.5C483.703 286.61 483.037 285.11 481.5 284C474.028 279.268 466.361 275.101 458.5 271.5Z" fill="#B4C8E3"/>
<path opacity="0.651" fill-rule="evenodd" clip-rule="evenodd" d="M36.5 281.5C32.1927 285.472 27.8593 289.472 23.5 293.5C26.5537 288.113 30.887 284.113 36.5 281.5Z" fill="#B1C2E3"/>
<path fill-rule="evenodd" clip-rule="evenodd" d="M487.5 289.5C488.5 290.167 489.5 290.833 490.5 291.5C491.906 291.973 492.573 292.973 492.5 294.5C492.5 295.833 492.5 297.167 492.5 298.5C492.5 299.5 492.5 300.5 492.5 301.5C488.833 301.5 485.167 301.5 481.5 301.5C481.5 301.167 481.5 300.833 481.5 300.5C481.5 299.5 481.5 298.5 481.5 297.5C331.833 297.5 182.167 297.5 32.5 297.5C182.592 295.826 332.758 294.826 483 294.5C483.273 296.101 483.773 297.601 484.5 299C486.556 299.311 488.556 299.811 490.5 300.5C490.833 300 491.167 299.5 491.5 299C490.016 295.87 488.683 292.703 487.5 289.5Z" fill="#5584BF"/>
<path opacity="0.168" fill-rule="evenodd" clip-rule="evenodd" d="M493.5 291.5C500.491 296.781 501.157 302.781 495.5 309.5C492.026 311.062 488.36 311.895 484.5 312C391.996 312.428 299.496 311.928 207 310.5C182.996 310.599 158.996 310.932 135 311.5C99.1797 310.12 63.3464 309.287 27.4998 309C20.2207 306.94 17.8873 302.44 20.4998 295.5C20.4998 297.167 20.4998 298.833 20.4998 300.5C178.5 300.667 336.5 300.5 494.5 300C494.957 299.586 495.291 299.086 495.5 298.5C494.675 296.199 494.008 293.865 493.5 291.5Z" fill="black"/>
<path fill-rule="evenodd" clip-rule="evenodd" d="M32.5002 297.5C182.167 297.5 331.833 297.5 481.5 297.5C481.5 298.5 481.5 299.5 481.5 300.5C330.833 300.5 180.167 300.5 29.5002 300.5C29.1207 297.433 30.1207 296.433 32.5002 297.5Z" fill="#5882C5"/>
<path opacity="0.995" fill-rule="evenodd" clip-rule="evenodd" d="M23.5001 293.5C22.7348 296.096 22.4014 298.763 22.5001 301.5C175.5 301.5 328.5 301.5 481.5 301.5C485.167 301.5 488.833 301.5 492.5 301.5C492.5 300.5 492.5 299.5 492.5 298.5C493.434 299.568 493.768 300.901 493.5 302.5C336.167 302.5 178.833 302.5 21.5001 302.5C21.5001 300.833 21.5001 299.167 21.5001 297.5C21.2292 295.62 21.8959 294.287 23.5001 293.5Z" fill="#7194C2"/>
<path opacity="0.785" fill-rule="evenodd" clip-rule="evenodd" d="M492.5 294.5C492.833 294.5 493.167 294.5 493.5 294.5C494.008 296.865 494.675 299.199 495.5 301.5C495.291 302.086 494.957 302.586 494.5 303C336.5 303.5 178.5 303.667 20.5 303.5C20.5 301.833 20.5 300.167 20.5 298.5C20.5 297.833 20.8333 297.5 21.5 297.5C21.5 299.167 21.5 300.833 21.5 302.5C178.833 302.5 336.167 302.5 493.5 302.5C493.768 300.901 493.434 299.568 492.5 298.5C492.5 297.167 492.5 295.833 492.5 294.5Z" fill="#728092"/>
</g>
<path d="M670.34 189.544H660.18V148.903H615.057L616.252 136.353H664.363L670.639 145.317L670.34 189.544ZM691.258 214.048V131.87H700.82V168.028H722.037V177.89H701.119V214.347L691.258 214.048ZM638.664 199.106H677.512V208.968H608.781V198.509H628.504V168.327H637.768L638.664 199.106ZM691.258 241.839C691.258 238.153 689.515 235.065 686.028 232.575C682.642 229.985 677.91 228.69 671.834 228.69C665.559 228.69 660.728 229.985 657.341 232.575C654.054 235.065 652.41 238.153 652.41 241.839C652.41 245.624 654.054 248.812 657.341 251.401C660.728 253.991 665.559 255.286 671.834 255.286C677.91 255.286 682.642 253.991 686.028 251.401C689.515 248.812 691.258 245.624 691.258 241.839ZM641.951 241.839C641.951 238.851 642.549 236.012 643.744 233.322C645.039 230.633 646.932 228.292 649.422 226.3C652.012 224.208 655.149 222.614 658.835 221.519C662.521 220.323 666.854 219.726 671.834 219.726C676.715 219.726 680.998 220.323 684.684 221.519C688.469 222.614 691.606 224.208 694.097 226.3C696.687 228.292 698.579 230.633 699.774 233.322C701.069 236.012 701.717 238.851 701.717 241.839C701.717 245.026 701.069 247.965 699.774 250.654C698.579 253.344 696.687 255.685 694.097 257.677C691.606 259.769 688.469 261.362 684.684 262.458C680.998 263.653 676.715 264.251 671.834 264.251C666.854 264.251 662.521 263.653 658.835 262.458C655.149 261.362 652.012 259.769 649.422 257.677C646.932 255.685 645.039 253.344 643.744 250.654C642.549 247.965 641.951 245.026 641.951 241.839ZM778.528 183.567L810.203 156.673V139.042H780.918V129.778H848.752V138.743H821.559V156.972L851.442 182.372L845.465 189.843L815.582 165.937L785.998 191.337L778.528 183.567ZM812.893 216.737H762.989V205.979H868.176V217.335H823.352V254.091H812.893V216.737ZM1006.26 172.212L999.087 165.937V122.308H1009.25V162.649H1060.35V171.913H1035.39V188.946H1081.86V199.405H977.272V188.05H1025.38V172.062L1006.26 172.212ZM996.098 208.968H1067.22V241.839H1000.88V254.987H1076.18V262.757H996.098L991.018 259.769V232.276H1057.06V217.634H996.098V208.968ZM1126.7 178.786C1126.7 175.3 1127.1 171.564 1127.89 167.58C1128.79 163.496 1130.23 159.711 1132.23 156.225C1134.32 152.738 1137.11 149.85 1140.59 147.559C1144.08 145.268 1148.51 144.122 1153.89 144.122C1158.97 144.122 1163.25 145.268 1166.74 147.559C1170.23 149.85 1173.02 152.738 1175.11 156.225C1177.3 159.711 1178.84 163.496 1179.74 167.58C1180.64 171.564 1181.08 175.3 1181.08 178.786C1181.08 182.472 1180.64 186.356 1179.74 190.44C1178.84 194.425 1177.3 198.11 1175.11 201.497C1173.02 204.884 1170.23 207.673 1166.74 209.864C1163.25 212.056 1158.97 213.151 1153.89 213.151C1148.81 213.151 1144.53 212.056 1141.04 209.864C1137.56 207.673 1134.72 204.884 1132.53 201.497C1130.43 198.11 1128.94 194.425 1128.04 190.44C1127.15 186.356 1126.7 182.472 1126.7 178.786ZM1136.56 178.786C1136.56 181.276 1136.81 183.966 1137.31 186.854C1137.8 189.743 1138.7 192.433 1140 194.923C1141.29 197.413 1143.03 199.505 1145.23 201.198C1147.52 202.792 1150.41 203.589 1153.89 203.589C1157.28 203.589 1160.07 202.792 1162.26 201.198C1164.55 199.505 1166.34 197.413 1167.64 194.923C1169.03 192.433 1169.98 189.743 1170.48 186.854C1170.97 183.966 1171.22 181.276 1171.22 178.786C1171.22 176.296 1170.92 173.606 1170.33 170.718C1169.83 167.829 1168.93 165.14 1167.64 162.649C1166.34 160.159 1164.55 158.117 1162.26 156.523C1160.07 154.83 1157.28 153.983 1153.89 153.983C1150.31 153.983 1147.37 154.83 1145.08 156.523C1142.88 158.117 1141.14 160.159 1139.85 162.649C1138.55 165.14 1137.66 167.829 1137.16 170.718C1136.76 173.606 1136.56 176.296 1136.56 178.786ZM1209.77 230.782V128.583H1222.02V230.782H1209.77ZM1332.01 211.06V220.921H1277.92L1272.24 213.45V148.007H1323.94V155.776H1282.1V176.396H1323.94V187.751H1282.1V209.864L1332.01 211.06ZM1375.34 233.771H1367.27V185.958H1330.81V176.993H1366.07V131.87H1375.34V233.771ZM1506.83 194.923H1482.48V228.392H1529.24V239.149H1424.65V227.495H1472.77V194.923H1449.76L1443.78 189.544V143.226H1506.23L1506.83 194.923ZM1454.54 154.282V185.659H1496.97V154.282H1454.54ZM1567.8 182.372C1567.8 178.886 1568.2 175.15 1569 171.166C1569.9 167.082 1571.34 163.297 1573.33 159.811C1575.42 156.324 1578.21 153.436 1581.7 151.145C1585.19 148.854 1589.62 147.708 1595 147.708C1600.08 147.708 1604.36 148.854 1607.85 151.145C1611.33 153.436 1614.12 156.324 1616.21 159.811C1618.41 163.297 1619.95 167.082 1620.85 171.166C1621.74 175.15 1622.19 178.886 1622.19 182.372C1622.19 186.058 1621.74 189.942 1620.85 194.026C1619.95 198.011 1618.41 201.696 1616.21 205.083C1614.12 208.47 1611.33 211.259 1607.85 213.45C1604.36 215.642 1600.08 216.737 1595 216.737C1589.92 216.737 1585.63 215.642 1582.15 213.45C1578.66 211.259 1575.82 208.47 1573.63 205.083C1571.54 201.696 1570.05 198.011 1569.15 194.026C1568.25 189.942 1567.8 186.058 1567.8 182.372ZM1577.67 182.372C1577.67 184.862 1577.91 187.552 1578.41 190.44C1578.91 193.329 1579.81 196.019 1581.1 198.509C1582.4 200.999 1584.14 203.091 1586.33 204.784C1588.62 206.378 1591.51 207.175 1595 207.175C1598.38 207.175 1601.17 206.378 1603.36 204.784C1605.66 203.091 1607.45 200.999 1608.74 198.509C1610.14 196.019 1611.08 193.329 1611.58 190.44C1612.08 187.552 1612.33 184.862 1612.33 182.372C1612.33 179.882 1612.03 177.192 1611.43 174.304C1610.94 171.415 1610.04 168.726 1608.74 166.235C1607.45 163.745 1605.66 161.703 1603.36 160.109C1601.17 158.416 1598.38 157.569 1595 157.569C1591.41 157.569 1588.47 158.416 1586.18 160.109C1583.99 161.703 1582.25 163.745 1580.95 166.235C1579.66 168.726 1578.76 171.415 1578.26 174.304C1577.86 177.192 1577.67 179.882 1577.67 182.372ZM1647.29 237.058V134.858H1658.95V180.579H1684.65V190.44H1658.35V237.058H1647.29Z" fill="#3E3E3E"/>
<defs>
<clipPath id="clip0_200_775">
<rect width="526" height="340" fill="white"/>
</clipPath>
</defs>
</svg>
