<svg width="42" height="54" viewBox="0 0 42 54" fill="none" xmlns="http://www.w3.org/2000/svg">
<g filter="url(#filter0_f_202_1045)">
<ellipse cx="21" cy="49.5" rx="7" ry="2.5" fill="black" fill-opacity="0.2"/>
</g>
<path fill-rule="evenodd" clip-rule="evenodd" d="M21 0C32.598 0 42 9.40202 42 21C42 29.8926 36.4727 37.4942 28.6663 40.5567L22.1961 49.4007C22.0612 49.5858 21.8821 49.7369 21.6739 49.8412C21.4657 49.9455 21.2346 50 21 50C20.7654 50 20.5343 49.9455 20.3261 49.8412C20.1179 49.7369 19.9388 49.5858 19.8039 49.4007L13.3337 40.5567C5.52726 37.4941 0 29.8926 0 21C0 9.40202 9.40202 0 21 0Z" fill="#F75751"/>
<path d="M36 21C36 12.7157 29.2843 6 21 6C12.7157 6 6 12.7157 6 21C6 29.2843 12.7157 36 21 36C29.2843 36 36 29.2843 36 21Z" fill="#EFEFEF"/>
<path d="M16.4466 12.0237C13.5619 14.8998 13.4229 15.0562 13.4229 15.3603C13.4229 15.8469 13.6748 16.038 14.3091 16.038H14.8131V20.7821V25.5263L15.0651 25.3177C15.4474 25.0049 16.0035 24.2143 16.2207 23.6842C16.4118 23.2237 16.4118 23.0847 16.4466 19.6178L16.4813 16.038H19.5138H22.5462V17.35V18.6707L22.9459 18.6099C23.1718 18.5839 23.5454 18.5578 23.7713 18.5578H24.1971V17.2979V16.038H25.8045H27.412V17.6889V19.3398H25.2224C23.1718 19.3398 23.0067 19.3485 22.7373 19.5136C22.329 19.7655 22.1552 20.2434 21.9814 21.5555C21.7121 23.5626 21.3124 24.7095 20.4695 25.8478C19.5311 27.099 18.4624 27.8462 16.9853 28.2893C15.5429 28.7151 15.4647 28.8281 15.4647 30.3834C15.4647 31.4695 15.4734 31.5042 15.6907 31.7302C16.0121 32.0516 16.49 32.0777 17.5935 31.8518C18.6188 31.6433 19.7571 31.2001 20.4348 30.7483C20.9822 30.3921 21.825 29.5579 22.2942 28.9236C23.3977 27.4378 24.284 24.7008 24.284 22.7458V22.2071H25.848H27.4033L27.4294 26.8644L27.4554 31.5216L27.6987 31.7302C28.0202 32.0082 28.4546 32.0082 28.7761 31.7302L29.0194 31.5216L29.0455 23.7798L29.0629 16.038H29.2801C29.5321 16.038 29.8449 15.76 29.8449 15.5341C29.8449 15.3168 29.4626 14.9693 26.7603 12.7275C25.4743 11.6588 23.9538 10.3815 23.389 9.88627L22.355 9H20.9127H19.4616L16.4466 12.0237Z" fill="#BE2E28"/>
<path d="M18.4886 19.9915C18.0281 20.2695 17.8283 20.6779 17.5589 21.9465C17.1766 23.7625 16.6987 24.7269 15.6474 25.8391C14.735 26.7949 13.8401 27.3683 12.5975 27.768C11.1378 28.2372 11.0422 28.3763 11.0075 29.9924C10.9727 31.2957 11.0509 31.652 11.4159 31.8431C11.5027 31.8953 12.1718 31.9213 12.9885 31.9039C14.2484 31.8866 14.4135 31.8605 14.5178 31.7215C14.6047 31.6085 14.6394 31.2523 14.6394 30.5137C14.6481 28.4545 14.8393 28.159 16.551 27.629C18.5929 27.0034 19.8615 25.8739 20.6 24.0492C20.8868 23.328 21.0345 22.6937 21.243 21.3382C21.3386 20.6953 21.4428 20.0784 21.4689 19.9654L21.521 19.7742H20.1916C18.9231 19.7742 18.8362 19.7829 18.4886 19.9915Z" fill="#BE2E28"/>
<defs>
<filter id="filter0_f_202_1045" x="12" y="45" width="18" height="9" filterUnits="userSpaceOnUse" color-interpolation-filters="sRGB">
<feFlood flood-opacity="0" result="BackgroundImageFix"/>
<feBlend mode="normal" in="SourceGraphic" in2="BackgroundImageFix" result="shape"/>
<feGaussianBlur stdDeviation="1" result="effect1_foregroundBlur_202_1045"/>
</filter>
</defs>
</svg>
