<svg width="138" height="70" viewBox="0 0 138 70" fill="none" xmlns="http://www.w3.org/2000/svg">
<g filter="url(#filter0_f_238_470)">
<ellipse cx="64" cy="49.5" rx="7" ry="2.5" fill="black" fill-opacity="0.2"/>
</g>
<path fill-rule="evenodd" clip-rule="evenodd" d="M64 0C75.598 0 85 9.40202 85 21C85 29.8926 79.4727 37.4942 71.6663 40.5567L65.1961 49.4007C65.0612 49.5858 64.8821 49.7369 64.6739 49.8412C64.4657 49.9455 64.2346 50 64 50C63.7654 50 63.5343 49.9455 63.3261 49.8412C63.1179 49.7369 62.9388 49.5858 62.8039 49.4007L56.3337 40.5567C48.5273 37.4941 43 29.8926 43 21C43 9.40202 52.402 0 64 0Z" fill="url(#paint0_linear_238_470)"/>
<path d="M79 21C79 12.7157 72.2843 6 64 6C55.7157 6 49 12.7157 49 21C49 29.2843 55.7157 36 64 36C72.2843 36 79 29.2843 79 21Z" fill="#EFEFEF"/>
<path d="M59.4466 12.0237C56.5619 14.8998 56.4229 15.0562 56.4229 15.3603C56.4229 15.8469 56.6748 16.038 57.3091 16.038H57.8131V20.7821V25.5263L58.0651 25.3177C58.4474 25.0049 59.0035 24.2143 59.2207 23.6842C59.4118 23.2237 59.4118 23.0847 59.4466 19.6178L59.4813 16.038H62.5138H65.5462V17.35V18.6707L65.9459 18.6099C66.1718 18.5839 66.5454 18.5578 66.7713 18.5578H67.1971V17.2979V16.038H68.8045H70.412V17.6889V19.3398H68.2224C66.1718 19.3398 66.0067 19.3485 65.7373 19.5136C65.329 19.7655 65.1552 20.2434 64.9814 21.5555C64.7121 23.5626 64.3124 24.7095 63.4695 25.8478C62.5311 27.099 61.4624 27.8462 59.9853 28.2893C58.5429 28.7151 58.4647 28.8281 58.4647 30.3834C58.4647 31.4695 58.4734 31.5042 58.6907 31.7302C59.0121 32.0516 59.49 32.0777 60.5935 31.8518C61.6188 31.6433 62.7571 31.2001 63.4348 30.7483C63.9822 30.3921 64.825 29.5579 65.2942 28.9236C66.3977 27.4378 67.284 24.7008 67.284 22.7458V22.2071H68.848H70.4033L70.4294 26.8644L70.4554 31.5216L70.6987 31.7302C71.0202 32.0082 71.4546 32.0082 71.7761 31.7302L72.0194 31.5216L72.0455 23.7798L72.0629 16.038H72.2801C72.5321 16.038 72.8449 15.76 72.8449 15.5341C72.8449 15.3168 72.4626 14.9693 69.7603 12.7275C68.4743 11.6588 66.9538 10.3815 66.389 9.88627L65.355 9H63.9127H62.4616L59.4466 12.0237Z" fill="#BE2E28"/>
<path d="M61.4886 19.9915C61.0281 20.2695 60.8283 20.6779 60.5589 21.9465C60.1766 23.7625 59.6987 24.7269 58.6474 25.8391C57.735 26.7949 56.8401 27.3683 55.5975 27.768C54.1378 28.2372 54.0422 28.3763 54.0075 29.9924C53.9727 31.2957 54.0509 31.652 54.4159 31.8431C54.5027 31.8953 55.1718 31.9213 55.9885 31.9039C57.2484 31.8866 57.4135 31.8605 57.5178 31.7215C57.6047 31.6085 57.6394 31.2523 57.6394 30.5137C57.6481 28.4545 57.8393 28.159 59.551 27.629C61.5929 27.0034 62.8615 25.8739 63.6 24.0492C63.8868 23.328 64.0345 22.6937 64.243 21.3382C64.3386 20.6953 64.4428 20.0784 64.4689 19.9654L64.521 19.7742H63.1916C61.9231 19.7742 61.8362 19.7829 61.4886 19.9915Z" fill="#BE2E28"/>
<g filter="url(#filter1_f_238_470)">
<ellipse cx="21" cy="49.5" rx="7" ry="2.5" fill="black" fill-opacity="0.2"/>
</g>
<path fill-rule="evenodd" clip-rule="evenodd" d="M21 0C32.598 0 42 9.40202 42 21C42 29.8926 36.4727 37.4942 28.6663 40.5567L22.1961 49.4007C22.0612 49.5858 21.8821 49.7369 21.6739 49.8412C21.4657 49.9455 21.2346 50 21 50C20.7654 50 20.5343 49.9455 20.3261 49.8412C20.1179 49.7369 19.9388 49.5858 19.8039 49.4007L13.3337 40.5567C5.52726 37.4941 0 29.8926 0 21C0 9.40202 9.40202 0 21 0Z" fill="url(#paint1_linear_238_470)"/>
<path d="M36 21C36 12.7157 29.2843 6 21 6C12.7157 6 6 12.7157 6 21C6 29.2843 12.7157 36 21 36C29.2843 36 36 29.2843 36 21Z" fill="#EFEFEF"/>
<path d="M16.4466 12.0237C13.5619 14.8998 13.4229 15.0562 13.4229 15.3603C13.4229 15.8469 13.6748 16.038 14.3091 16.038H14.8131V20.7821V25.5263L15.0651 25.3177C15.4474 25.0049 16.0035 24.2143 16.2207 23.6842C16.4118 23.2237 16.4118 23.0847 16.4466 19.6178L16.4813 16.038H19.5138H22.5462V17.35V18.6707L22.9459 18.6099C23.1718 18.5839 23.5454 18.5578 23.7713 18.5578H24.1971V17.2979V16.038H25.8045H27.412V17.6889V19.3398H25.2224C23.1718 19.3398 23.0067 19.3485 22.7373 19.5136C22.329 19.7655 22.1552 20.2434 21.9814 21.5555C21.7121 23.5626 21.3124 24.7095 20.4695 25.8478C19.5311 27.099 18.4624 27.8462 16.9853 28.2893C15.5429 28.7151 15.4647 28.8281 15.4647 30.3834C15.4647 31.4695 15.4734 31.5042 15.6907 31.7302C16.0121 32.0516 16.49 32.0777 17.5935 31.8518C18.6188 31.6433 19.7571 31.2001 20.4348 30.7483C20.9822 30.3921 21.825 29.5579 22.2942 28.9236C23.3977 27.4378 24.284 24.7008 24.284 22.7458V22.2071H25.848H27.4033L27.4294 26.8644L27.4554 31.5216L27.6987 31.7302C28.0202 32.0082 28.4546 32.0082 28.7761 31.7302L29.0194 31.5216L29.0455 23.7798L29.0629 16.038H29.2801C29.5321 16.038 29.8449 15.76 29.8449 15.5341C29.8449 15.3168 29.4626 14.9693 26.7603 12.7275C25.4743 11.6588 23.9538 10.3815 23.389 9.88627L22.355 9H20.9127H19.4616L16.4466 12.0237Z" fill="#353B7F"/>
<path d="M18.4886 19.9915C18.0281 20.2695 17.8283 20.6779 17.5589 21.9465C17.1766 23.7625 16.6987 24.7269 15.6474 25.8391C14.735 26.7949 13.8401 27.3683 12.5975 27.768C11.1378 28.2372 11.0422 28.3763 11.0075 29.9924C10.9727 31.2957 11.0509 31.652 11.4159 31.8431C11.5027 31.8953 12.1718 31.9213 12.9885 31.9039C14.2484 31.8866 14.4135 31.8605 14.5178 31.7215C14.6047 31.6085 14.6394 31.2523 14.6394 30.5137C14.6481 28.4545 14.8393 28.159 16.551 27.629C18.5929 27.0034 19.8615 25.8739 20.6 24.0492C20.8868 23.328 21.0345 22.6937 21.243 21.3382C21.3386 20.6953 21.4428 20.0784 21.4689 19.9654L21.521 19.7742H20.1916C18.9231 19.7742 18.8362 19.7829 18.4886 19.9915Z" fill="#353B7F"/>
<g filter="url(#filter2_f_238_470)">
<ellipse cx="112" cy="63.4587" rx="12" ry="4.54134" fill="black" fill-opacity="0.2"/>
</g>
<path fill-rule="evenodd" clip-rule="evenodd" d="M112 0C126.359 0 138 11.7475 138 26.2389C138 37.3499 131.157 46.8478 121.492 50.6744L113.481 62.7338C113.314 62.9651 113.092 63.154 112.834 63.2843C112.577 63.4146 112.29 63.4827 112 63.4827C111.71 63.4827 111.423 63.4146 111.166 63.2843C110.908 63.154 110.686 62.9651 110.519 62.7338L102.508 50.6744C92.8433 46.8478 86 37.3499 86 26.2389C86 11.7475 97.6406 0 112 0Z" fill="url(#paint2_linear_238_470)"/>
<path d="M130.571 26.2389C130.571 15.8879 122.257 7.49682 112 7.49682C101.743 7.49682 93.4286 15.8879 93.4286 26.2389C93.4286 36.5898 101.743 44.9809 112 44.9809C122.257 44.9809 130.571 36.5898 130.571 26.2389Z" fill="#EFEFEF"/>
<path d="M106.362 15.0233C102.791 18.6168 102.619 18.8122 102.619 19.1922C102.619 19.8002 102.931 20.039 103.716 20.039H104.34V25.9667V31.8943L104.652 31.6338C105.125 31.2429 105.814 30.255 106.083 29.5927C106.319 29.0173 106.319 28.8436 106.362 24.5119L106.405 20.039H110.16H113.914V21.6783V23.3285L114.409 23.2525C114.689 23.22 115.151 23.1874 115.431 23.1874H115.958V21.6132V20.039H117.948H119.939V22.1017V24.1645H117.228C114.689 24.1645 114.484 24.1753 114.151 24.3816C113.645 24.6965 113.43 25.2936 113.215 26.9329C112.882 29.4407 112.387 30.8738 111.343 32.296C110.181 33.8594 108.858 34.793 107.029 35.3467C105.244 35.8787 105.147 36.0198 105.147 37.9631C105.147 39.3202 105.158 39.3636 105.427 39.6459C105.825 40.0476 106.416 40.0801 107.782 39.7979C109.052 39.5373 110.461 38.9836 111.3 38.4191C111.978 37.974 113.021 36.9317 113.602 36.1392C114.969 34.2828 116.066 30.863 116.066 28.4202V27.7471H118.002H119.928L119.96 33.5662L119.992 39.3853L120.294 39.6459C120.692 39.9933 121.23 39.9933 121.628 39.6459L121.929 39.3853L121.961 29.7122L121.983 20.039H122.252C122.564 20.039 122.951 19.6916 122.951 19.4093C122.951 19.1379 122.477 18.7037 119.132 15.9027C117.54 14.5673 115.657 12.9714 114.958 12.3526L113.678 11.2452H111.892H110.095L106.362 15.0233Z" fill="#353B7F"/>
<path d="M108.891 24.9787C108.321 25.3262 108.073 25.8364 107.74 27.4215C107.266 29.6905 106.675 30.8955 105.373 32.2852C104.243 33.4794 103.135 34.1959 101.597 34.6953C99.7898 35.2816 99.6714 35.4553 99.6284 37.4746C99.5854 39.1031 99.6822 39.5482 100.134 39.787C100.242 39.8522 101.07 39.8847 102.081 39.863C103.641 39.8413 103.845 39.8087 103.975 39.635C104.082 39.4939 104.125 39.0488 104.125 38.126C104.136 35.553 104.373 35.1839 106.492 34.5216C109.02 33.74 110.59 32.3286 111.505 30.0487C111.86 29.1476 112.043 28.3551 112.301 26.6615C112.419 25.8581 112.548 25.0873 112.581 24.9462L112.645 24.7073H110.999C109.429 24.7073 109.321 24.7182 108.891 24.9787Z" fill="#353B7F"/>
<defs>
<filter id="filter0_f_238_470" x="55" y="45" width="18" height="9" filterUnits="userSpaceOnUse" color-interpolation-filters="sRGB">
<feFlood flood-opacity="0" result="BackgroundImageFix"/>
<feBlend mode="normal" in="SourceGraphic" in2="BackgroundImageFix" result="shape"/>
<feGaussianBlur stdDeviation="1" result="effect1_foregroundBlur_238_470"/>
</filter>
<filter id="filter1_f_238_470" x="12" y="45" width="18" height="9" filterUnits="userSpaceOnUse" color-interpolation-filters="sRGB">
<feFlood flood-opacity="0" result="BackgroundImageFix"/>
<feBlend mode="normal" in="SourceGraphic" in2="BackgroundImageFix" result="shape"/>
<feGaussianBlur stdDeviation="1" result="effect1_foregroundBlur_238_470"/>
</filter>
<filter id="filter2_f_238_470" x="98" y="56.9173" width="28" height="13.0827" filterUnits="userSpaceOnUse" color-interpolation-filters="sRGB">
<feFlood flood-opacity="0" result="BackgroundImageFix"/>
<feBlend mode="normal" in="SourceGraphic" in2="BackgroundImageFix" result="shape"/>
<feGaussianBlur stdDeviation="1" result="effect1_foregroundBlur_238_470"/>
</filter>
<linearGradient id="paint0_linear_238_470" x1="64" y1="0" x2="64" y2="50" gradientUnits="userSpaceOnUse">
<stop stop-color="#F75751"/>
<stop offset="1" stop-color="#913330"/>
</linearGradient>
<linearGradient id="paint1_linear_238_470" x1="21" y1="0" x2="21" y2="50" gradientUnits="userSpaceOnUse">
<stop stop-color="#9FB4FF"/>
<stop offset="1" stop-color="#353B7F"/>
</linearGradient>
<linearGradient id="paint2_linear_238_470" x1="112" y1="0" x2="112" y2="63.4827" gradientUnits="userSpaceOnUse">
<stop stop-color="#9FB4FF"/>
<stop offset="1" stop-color="#353B7F"/>
</linearGradient>
</defs>
</svg>
