<svg width="32" height="32" viewBox="0 0 32 32" fill="none" xmlns="http://www.w3.org/2000/svg">
<path d="M26.2894 16.0006C26.2894 21.6834 21.6826 26.2902 15.9999 26.2902C10.3172 26.2902 5.71045 21.6834 5.71045 16.0006C5.71045 10.3177 10.3172 5.71094 15.9999 5.71094C21.6826 5.71094 26.2894 10.3177 26.2894 16.0006Z" stroke="#2B4E89" stroke-width="3"/>
<path d="M19.9737 16.0001C19.9737 18.1948 18.1946 19.9739 16.0001 19.9739C13.8055 19.9739 12.0264 18.1948 12.0264 16.0001C12.0264 13.8055 13.8055 12.0264 16.0001 12.0264C18.1946 12.0264 19.9737 13.8055 19.9737 16.0001Z" fill="#2B4E89" stroke="#2B4E89" stroke-width="3"/>
<rect x="26.1052" y="15.1582" width="5.89474" height="3.36846" rx="1.68423" fill="#2B4E89"/>
<path d="M0 16.8424C0 15.9123 0.754056 15.1582 1.68423 15.1582H4.21051C5.14069 15.1582 5.89474 15.9123 5.89474 16.8424V16.8424C5.89474 17.7726 5.14069 18.5267 4.21051 18.5267H1.68423C0.754056 18.5267 0 17.7726 0 16.8424V16.8424Z" fill="#2B4E89"/>
<path d="M15.9999 32C15.0698 32 14.3157 31.246 14.3157 30.3158V26.9473C14.3157 26.0171 15.0698 25.2631 15.9999 25.2631V25.2631C16.9301 25.2631 17.6842 26.0171 17.6842 26.9473V30.3158C17.6842 31.246 16.9301 32 15.9999 32V32Z" fill="#2B4E89"/>
<path d="M15.9999 6.73633C15.0698 6.73633 14.3157 5.98228 14.3157 5.05212V1.68362C14.3157 0.753451 15.0698 -0.000597477 15.9999 -0.000597477V-0.000597477C16.9301 -0.000597477 17.6842 0.75345 17.6842 1.68361V3.36787V5.05212C17.6842 5.98228 16.9301 6.73633 15.9999 6.73633V6.73633Z" fill="#2B4E89"/>
</svg>
