<svg width="94" height="75" viewBox="0 0 94 75" fill="none" xmlns="http://www.w3.org/2000/svg">
<path d="M48.5 57C62.031 57 73 46.031 73 32.5C73 18.969 62.031 8 48.5 8C34.969 8 24 18.969 24 32.5C24 46.031 34.969 57 48.5 57Z" stroke="#808080" stroke-width="2"/>
<path d="M42.5 33C43.3284 33 44 32.1046 44 31C44 29.8954 43.3284 29 42.5 29C41.6716 29 41 29.8954 41 31C41 32.1046 41.6716 33 42.5 33Z" fill="#808080"/>
<path d="M54.5 33C55.3284 33 56 32.1046 56 31C56 29.8954 55.3284 29 54.5 29C53.6716 29 53 29.8954 53 31C53 32.1046 53.6716 33 54.5 33Z" fill="#808080"/>
<path d="M45 38L53 38" stroke="#808080" stroke-width="2" stroke-linecap="round"/>
<path d="M76.2929 62.7071C76.6834 63.0976 77.3166 63.0976 77.7071 62.7071C78.0976 62.3166 78.0976 61.6834 77.7071 61.2929L76.2929 62.7071ZM64.2929 50.7071L76.2929 62.7071L77.7071 61.2929L65.7071 49.2929L64.2929 50.7071Z" fill="#808080"/>
</svg>
