<svg width="27" height="27" viewBox="0 0 27 27" fill="none" xmlns="http://www.w3.org/2000/svg">
<path fill-rule="evenodd" clip-rule="evenodd" d="M12.7024 24.4193L13.5 23.625L12.7024 24.4193ZM13.5 23.625L14.2965 24.4193C14.192 24.5242 14.0678 24.6075 13.931 24.6643C13.7942 24.7211 13.6475 24.7503 13.4994 24.7503C13.3513 24.7503 13.2047 24.7211 13.0679 24.6643C12.9311 24.6075 12.8069 24.5242 12.7024 24.4193L12.6956 24.4114L12.6765 24.3923L12.6068 24.3214C12.2102 23.9129 11.8201 23.4981 11.4368 23.0771C10.4742 22.0224 9.55252 20.9311 8.67375 19.8056C7.67025 18.5119 6.64425 17.0494 5.86462 15.6049C5.10187 14.1885 4.5 12.654 4.5 11.25C4.5 6.14363 8.541 2.25 13.5 2.25C18.459 2.25 22.5 6.14363 22.5 11.25C22.5 12.654 21.8981 14.1885 21.1354 15.6038C20.3558 17.0505 19.3309 18.5119 18.3263 19.8056C17.0971 21.3802 15.7842 22.8876 14.3932 24.3214L14.3235 24.3923L14.3044 24.4114L14.2976 24.4181L13.5 23.625ZM13.5 14.625C14.3951 14.625 15.2536 14.2694 15.8865 13.6365C16.5194 13.0036 16.875 12.1451 16.875 11.25C16.875 10.3549 16.5194 9.49645 15.8865 8.86352C15.2536 8.23058 14.3951 7.875 13.5 7.875C12.6049 7.875 11.7464 8.23058 11.1135 8.86352C10.4806 9.49645 10.125 10.3549 10.125 11.25C10.125 12.1451 10.4806 13.0036 11.1135 13.6365C11.7464 14.2694 12.6049 14.625 13.5 14.625V14.625Z" fill="#3B3B3B"/>
</svg>
